<?xml version="1.0" encoding="UTF-8"?>
<svg width="128px" height="34px" viewBox="0 0 128 34" version="1.1" xmlns="http://www.w3.org/2000/svg" xmlns:xlink="http://www.w3.org/1999/xlink">
    <title>2020-04-20-MyLead Logo-negatyw-kolor-poziom</title>
    <g id="Trafiic-sources" stroke="none" stroke-width="1" fill="none" fill-rule="evenodd">
        <g id="panel-traffic-sources--filled" transform="translate(-30.000000, -30.000000)">
            <g id="2020-04-20-MyLead-Logo-negatyw-kolor-poziom" transform="translate(30.000000, 30.000000)">
                <path d="M100.686494,23.3079809 L100.686494,23.3590515 C100.686494,25.3508049 102.576107,26.5254286 104.721072,26.5254286 C107.529955,26.5254286 109.981343,24.7890283 109.981343,22.2354983 L109.981343,20.6523098 C108.80672,20.3458862 107.274602,20.0394626 105.282848,20.0394626 C102.320754,20.0905332 100.686494,21.3672982 100.686494,23.3079809 Z" id="Path"></path>
                <path d="M13.3557706,22.0822865 C12.8450646,21.8780041 12.027935,21.5715805 10.9043819,21.265157 C10.3936759,21.1119452 10.0872523,21.009804 9.98511108,20.8565922 C9.88296988,20.754451 9.83189928,20.6012392 9.83189928,20.4480274 C9.88296988,20.0394626 10.1893935,19.8351802 10.8533113,19.8862508 C11.3640172,19.9373214 11.772582,20.0905332 12.027935,20.3969568 C12.3343586,20.754451 12.793994,20.9076628 13.2536294,20.8055216 C14.2239708,20.5501686 14.581465,19.3244742 13.815406,18.6605564 C13.3557706,18.2519916 12.7429234,17.9966386 12.027935,17.8434268 C11.9768644,17.8434268 11.9257938,17.8434268 11.8747232,17.7923562 L11.8747232,17.2816503 C11.8747232,16.6688031 11.4150878,16.2091677 10.8022407,16.2091677 C10.1893935,16.2091677 9.72975808,16.6688031 9.72975808,17.2816503 L9.72975808,17.7412856 C8.86155791,17.8944974 8.19764012,18.200921 7.68693414,18.711627 C7.12515755,19.2734036 6.81873396,19.988392 6.76766336,20.754451 C6.71659276,21.4694393 6.92087515,22.1333571 7.38051054,22.6951337 C7.84014593,23.2569103 8.9126285,23.8186869 10.6490289,24.2783223 C11.1086642,24.3804635 11.4150878,24.5336753 11.5682996,24.6358165 C11.7215114,24.7890283 11.8236526,24.9422401 11.8236526,25.1465225 C11.772582,25.5550872 11.4150878,25.7593696 10.6490289,25.708299 C9.98511108,25.6572284 9.52547569,25.452946 9.2190521,25.0954519 C8.9126285,24.6868871 8.45299312,24.4315341 7.94228713,24.5336753 C6.81873396,24.6868871 6.35909857,26.0147226 7.12515755,26.8318522 C7.63586354,27.3425582 8.29978132,27.7000524 9.1679815,27.9043348 C9.2701227,27.9043348 9.47440509,27.9554054 9.78082868,28.006476 L9.78082868,28.5682526 C9.78082868,29.1810998 10.2404641,29.6407351 10.8533113,29.6407351 C11.4661584,29.6407351 11.9257938,29.1810998 11.9257938,28.5682526 L11.9257938,28.006476 C12.6918528,27.8532642 13.3557706,27.5979112 13.8664766,27.1893464 C14.5303944,26.6275698 14.9389592,25.8615108 14.9900298,24.9933107 C15.0411004,24.3293929 14.8878886,23.7676163 14.581465,23.3079809 C14.2239708,22.6951337 13.8664766,22.3376395 13.3557706,22.0822865 Z" id="Path"></path>
                <path d="M90.1148805,14.5238379 C87.3570681,14.5238379 85.2631736,16.8220149 85.0078206,19.9373214 L95.1197991,19.9373214 C94.8644462,17.0773679 93.2812576,14.5238379 90.1148805,14.5238379 Z" id="Path"></path>
                <path d="M120.910451,14.5749085 C117.897286,14.5749085 115.445897,16.7709443 115.445897,20.499098 L115.445897,20.5501686 C115.445897,24.1761811 117.999427,26.5254286 120.910451,26.5254286 C123.821476,26.5254286 126.579288,24.1251105 126.579288,20.5501686 L126.579288,20.499098 C126.579288,16.9752267 123.821476,14.5749085 120.910451,14.5749085 Z" id="Path"></path>
                <polygon id="Path" fill="#45BF52" fill-rule="nonzero" points="40.5253291 16.5155913 35.5204104 8.44643667 30.9751272 8.44643667 30.9751272 27.49577 35.1118456 27.49577 35.1118456 15.1366851 40.4231879 23.2058397 40.5253291 23.2058397 45.887742 15.0345439 45.887742 27.49577 50.0244605 27.49577 50.0244605 8.44643667 45.5302478 8.44643667"></polygon>
                <path d="M59.4725212,22.8483455 L56.1529323,12.8895788 L51.7608608,12.8895788 L57.5318385,27.5468406 C57.1743443,28.261829 56.8168501,28.517182 56.1018617,28.517182 C55.5400851,28.517182 54.8761674,28.261829 54.3143908,27.9554054 L52.9354846,30.9685707 C54.0079672,31.5814179 55.1315203,31.9899827 56.6125677,31.9899827 C59.115027,31.9899827 60.2896508,30.8664295 61.413204,27.9043348 L67.0309698,12.9406494 L62.7410396,12.9406494 L59.4725212,22.8483455 Z" id="Path" fill="#45BF52" fill-rule="nonzero"></path>
                <polygon id="Path" fill="#FFFFFF" fill-rule="nonzero" points="70.7591236 8.44643667 69.3291468 8.44643667 69.3291468 27.49577 81.9435847 27.49577 81.9435847 26.1679344 70.7591236 26.1679344"></polygon>
                <path d="M90.1659511,13.2981436 C86.3867268,13.2981436 83.5778438,16.5155913 83.5778438,20.5501686 L83.5778438,20.6012392 C83.5778438,24.9422401 86.744221,27.8532642 90.3702335,27.8532642 C93.0259046,27.8532642 94.7112344,26.7807816 96.0901405,25.2486637 L95.1708697,24.4315341 C94.0473166,25.6572284 92.5662692,26.6275698 90.4213041,26.6275698 C87.7145623,26.6275698 85.212103,24.6358165 84.95675,21.1630158 L96.4987053,21.1630158 C96.5497759,20.9587334 96.5497759,20.8565922 96.5497759,20.6012392 C96.4987053,16.4134501 94.0473166,13.2981436 90.1659511,13.2981436 Z M84.95675,19.8862508 C85.212103,16.8220149 87.3059975,14.4727673 90.0638099,14.4727673 C93.230187,14.4727673 94.8644462,17.0773679 95.0687285,19.8862508 L84.95675,19.8862508 Z" id="Shape" fill="#FFFFFF" fill-rule="nonzero"></path>
                <path d="M105.43606,13.4002847 C103.546448,13.4002847 102.01433,13.9109907 100.533283,14.5749085 L101.043989,15.7495323 C102.320754,15.0856145 103.69966,14.6259791 105.384989,14.6259791 C108.244943,14.6259791 109.981343,16.0559559 109.981343,18.8648388 L109.981343,19.477686 C108.653508,19.1201918 107.325672,18.8648388 105.384989,18.8648388 C101.810048,18.8648388 99.3075882,20.499098 99.3075882,23.3590515 L99.3075882,23.4611927 C99.3075882,26.3722168 102.065401,27.8021936 104.670001,27.8021936 C107.325672,27.8021936 109.011002,26.474358 109.981343,25.1465225 L109.981343,27.4446994 L111.309179,27.4446994 L111.309179,18.7626976 C111.309179,17.0262973 110.798473,15.7495323 109.879202,14.8302615 C108.80672,13.9109907 107.325672,13.4002847 105.43606,13.4002847 Z M109.981343,22.2865689 C109.981343,24.8400989 107.581025,26.5764992 104.721072,26.5764992 C102.576107,26.5764992 100.686494,25.4018754 100.686494,23.4101221 L100.686494,23.3590515 C100.686494,21.4183687 102.320754,20.1416038 105.282848,20.1416038 C107.274602,20.1416038 108.80672,20.4480274 109.981343,20.754451 L109.981343,22.2865689 L109.981343,22.2865689 Z" id="Shape" fill="#FFFFFF" fill-rule="nonzero"></path>
                <path d="M126.528217,7.62930709 L126.528217,16.6177325 C125.404664,14.8813321 123.566123,13.2981436 120.80831,13.2981436 C117.437651,13.2981436 114.066991,16.0559559 114.066991,20.5501686 L114.066991,20.6012392 C114.066991,25.0954519 117.488721,27.8021936 120.80831,27.8021936 C123.566123,27.8021936 125.302523,26.219005 126.528217,24.3804635 L126.528217,27.49577 L127.856053,27.49577 L127.856053,7.62930709 L126.528217,7.62930709 Z M126.579288,20.6012392 C126.579288,24.1251105 123.821476,26.5764992 120.910451,26.5764992 C117.999427,26.5764992 115.445897,24.2272517 115.445897,20.6012392 L115.445897,20.5501686 C115.445897,16.8220149 117.846216,14.6259791 120.910451,14.6259791 C123.821476,14.6259791 126.579288,17.0262973 126.579288,20.6012392 L126.579288,20.6012392 Z" id="Shape" fill="#FFFFFF" fill-rule="nonzero"></path>
                <path d="M7.78907533,9.31463685 L17.0839243,11.9192374 C17.8499833,12.1235198 18.6671129,11.6638844 18.9224659,10.8978254 C19.1267482,10.1317664 18.6671129,9.31463685 17.9010539,9.05928386 L8.60620491,6.45468332 C7.84014593,6.25040093 7.02301635,6.71003632 6.76766336,7.4760953 C6.56338096,8.24215428 7.02301635,9.11035446 7.78907533,9.31463685 Z" id="Path" fill="#45BF52" fill-rule="nonzero"></path>
                <path d="M19.8928072,19.8862508 C18.8203247,16.8730855 17.2882067,14.9324027 16.4710771,14.0642025 C16.1646535,13.7067083 15.7560887,13.5024259 15.2964533,13.3492142 L9.42333449,11.6638844 C8.86155791,11.5106726 8.24871072,11.5617432 7.68693414,11.7660256 C2.06916828,14.2174143 0.383838518,22.7972749 0.077414926,24.8400989 C0.077414926,24.9422401 0.0263443273,25.0443813 0.0263443273,25.1465225 C0.0263443273,25.2486637 0.0263443273,25.2997343 0.0263443273,25.2997343 C-0.382220462,29.4875233 4.00985103,33.3688888 9.83189928,33.9306654 C14.0196884,34.3392302 17.8499833,32.9092535 19.790666,30.5089353 L19.790666,30.5089353 C23.0591844,27.240417 19.8928072,19.8862508 19.8928072,19.8862508 L19.8928072,19.8862508 Z M13.815406,27.0872052 C13.3047,27.49577 12.6407822,27.8021936 11.8747232,27.9043348 L11.8747232,28.4661114 C11.8747232,29.0789586 11.4150878,29.5385939 10.8022407,29.5385939 C10.1893935,29.5385939 9.72975808,29.0789586 9.72975808,28.4661114 L9.72975808,27.9043348 C9.42333449,27.8532642 9.2190521,27.8021936 9.1169109,27.8021936 C8.29978132,27.5979112 7.58479294,27.240417 7.07408695,26.729711 C6.30802797,25.9125814 6.76766336,24.5847459 7.89121653,24.4315341 C8.40192252,24.3804635 8.86155791,24.6358165 9.1679815,24.9933107 C9.47440509,25.3508049 9.93404048,25.6061578 10.5979583,25.6061578 C11.3640172,25.6572284 11.772582,25.452946 11.772582,25.0443813 C11.772582,24.8400989 11.7215114,24.6358165 11.517229,24.5336753 C11.3640172,24.3804635 11.0575937,24.2783223 10.5979583,24.1761811 C8.86155791,23.7165457 7.78907533,23.2058397 7.32943994,22.5929925 C6.86980456,22.0312159 6.71659276,21.3672982 6.71659276,20.6523098 C6.76766336,19.8862508 7.07408695,19.1712624 7.63586354,18.6094858 C8.09549893,18.0987798 8.81048731,17.7923562 9.67868749,17.6391444 L9.67868749,17.1795091 C9.67868749,16.5666619 10.1383229,16.1070265 10.7511701,16.1070265 C11.3640172,16.1070265 11.8236526,16.5666619 11.8236526,17.1795091 L11.8236526,17.690215 C11.8747232,17.690215 11.9257938,17.690215 11.9768644,17.7412856 C12.6918528,17.8944974 13.3047,18.200921 13.7643354,18.5584152 C14.5303944,19.222333 14.2239708,20.4480274 13.2025588,20.7033804 C12.7429234,20.8055216 12.283288,20.6523098 11.9768644,20.2948156 C11.7215114,19.988392 11.3129466,19.8351802 10.8022407,19.7841096 C10.1383229,19.733039 9.78082868,19.9373214 9.78082868,20.3458862 C9.78082868,20.499098 9.83189928,20.6523098 9.93404048,20.754451 C10.0361817,20.8565922 10.3426053,21.009804 10.8533113,21.1630158 C11.9768644,21.4694393 12.793994,21.7758629 13.3047,21.9801453 C13.815406,22.1844277 14.1729002,22.5929925 14.4793238,23.0526279 C14.7857474,23.5633339 14.9389592,24.1251105 14.8878886,24.7379577 C14.8878886,25.7593696 14.5303944,26.5254286 13.815406,27.0872052 Z" id="Shape" fill="#FFFFFF" fill-rule="nonzero"></path>
                <path d="M9.62761689,4.51400057 C9.72975808,4.82042416 9.98511108,5.02470656 10.2915347,5.07577716 L17.7478421,7.11860111 C18.1053363,7.2207423 18.4628305,7.11860111 18.6671129,6.86324811 L20.7610074,4.76935357 C21.2206428,4.30971818 21.1185016,3.4925886 20.5056544,3.2372356 C19.8417366,2.98188261 19.4842424,3.03295321 18.2585481,2.98188261 C16.4710771,2.87974141 17.1349949,1.44976465 15.6028769,1.04119986 C13.4068412,0.428352675 12.8961352,2.62438842 11.0065231,0.785846866 C10.5468877,0.326211477 10.0361817,0.121929083 9.57654629,0.0197878851 C8.86155791,-0.133423911 8.24871072,0.63263507 8.50406371,1.29655285 L9.62761689,4.51400057 Z" id="Path" fill="#FFFFFF" fill-rule="nonzero"></path>
            </g>
        </g>
    </g>
</svg>