<?xml version="1.0" encoding="utf-8"?>
<!-- Generator: Adobe Illustrator 24.0.3, SVG Export Plug-In . SVG Version: 6.00 Build 0)  -->
<svg version="1.1" id="Layer_1" xmlns="http://www.w3.org/2000/svg" xmlns:xlink="http://www.w3.org/1999/xlink" x="0px" y="0px"
	 viewBox="0 0 164 35" style="enable-background:new 0 0 164 35;" xml:space="preserve">
<style type="text/css">
	.st0{fill-rule:evenodd;clip-rule:evenodd;fill:#9855FC;}
	.st1{fill-rule:evenodd;clip-rule:evenodd;fill:#211547;}
</style>
<title>Page 1</title>
<desc>Created with Sketch.</desc>
<g id="Homepage">
	<g id="homepage-desktop" transform="translate(-126.000000, -23.000000)">
		<g id="Page-1" transform="translate(126.000000, 23.000000)">
			<path id="Fill-1" class="st0" d="M2.39,1.19c-0.66,0-1.2,0.53-1.2,1.19v29.87c0,0.66,0.54,1.19,1.2,1.19h18.68
				c0.66,0,1.2-0.53,1.2-1.19V2.38c0-0.66-0.54-1.19-1.2-1.19H2.39z M21.07,34.63H2.39C1.07,34.63,0,33.56,0,32.25V2.38
				C0,1.07,1.07,0,2.39,0h18.68c1.32,0,2.39,1.07,2.39,2.38v29.87C23.47,33.56,22.39,34.63,21.07,34.63z"/>
			<path id="Fill-3" class="st0" d="M4.48,25.56h7.62c0.17,0,0.33,0.07,0.44,0.19l3.3,3.54v-3.14c0-0.33,0.27-0.59,0.6-0.59h2.54
				V6.54H4.48V25.56z M16.44,31.41c-0.16,0-0.32-0.07-0.44-0.19l-4.16-4.47H3.89c-0.33,0-0.6-0.27-0.6-0.59V5.94
				c0-0.33,0.27-0.59,0.6-0.59h15.69c0.33,0,0.6,0.27,0.6,0.59v20.21c0,0.33-0.27,0.59-0.6,0.59h-2.54v4.06
				c0,0.24-0.15,0.46-0.38,0.55C16.59,31.39,16.51,31.41,16.44,31.41z"/>
			<path id="Fill-5" class="st0" d="M14.2,3.78H9.27c-0.33,0-0.6-0.27-0.6-0.59s0.27-0.59,0.6-0.59h4.93c0.33,0,0.6,0.27,0.6,0.59
				S14.53,3.78,14.2,3.78"/>
			<path id="Fill-7" class="st1" d="M35.67,16.32h-0.81c-0.24,0-0.43-0.21-0.43-0.45v-1.59c0-0.26,0.19-0.45,0.43-0.45h0.81v-2.64
				c0-0.24,0.22-0.45,0.45-0.45l1.96-0.02c0.24,0,0.43,0.21,0.43,0.45v2.66h2.1c0.26,0,0.45,0.19,0.45,0.45v1.59
				c0,0.24-0.19,0.45-0.45,0.45h-2.1v3.8c0,0.67,0.36,0.76,0.74,0.76c0.41,0,0.91-0.17,1.17-0.26c0.26-0.1,0.45,0.02,0.53,0.26
				l0.48,1.5c0.1,0.24-0.02,0.48-0.26,0.57c-0.12,0.07-1.67,0.62-2.85,0.62c-1.84,0-2.65-1.14-2.65-3.07V16.32z"/>
			<path id="Fill-9" class="st1" d="M43.42,7.15c0-0.24,0.22-0.45,0.45-0.45h2.03c0.24,0,0.45,0.21,0.45,0.45v7.23
				c0.48-0.36,1.41-0.78,2.53-0.78c3.04,0,4.28,2.33,4.28,4.73v4.57c0,0.24-0.22,0.45-0.45,0.45h-1.94c-0.26,0-0.45-0.21-0.45-0.45
				V18.3c0-1.31-0.74-2.14-1.89-2.14c-1.1,0-1.84,0.71-2.08,1.69v5.04c0,0.26-0.14,0.45-0.5,0.45h-1.98c-0.24,0-0.45-0.21-0.45-0.45
				V7.15z"/>
			<path id="Fill-11" class="st1" d="M61.69,17.4c-0.07-0.88-0.84-1.62-1.75-1.62c-0.96,0-1.75,0.71-1.87,1.62H61.69z M60.01,13.59
				c2.46,0,4.47,1.85,4.47,4.42c0,0.17-0.02,0.48-0.05,0.64c-0.02,0.24-0.24,0.4-0.45,0.4h-6.12c0.07,0.97,0.91,2.07,2.3,2.07
				c0.74,0,1.44-0.29,1.87-0.59c0.24-0.14,0.45-0.19,0.62,0l0.98,1.12c0.17,0.17,0.22,0.43-0.02,0.62
				c-0.79,0.74-2.01,1.31-3.56,1.31c-2.87,0-4.9-2.26-4.9-4.99C55.13,15.9,57.17,13.59,60.01,13.59z"/>
			<path id="Fill-13" class="st1" d="M70.65,21.01c1.27,0,2.3-1.09,2.3-2.45c0-1.33-1.03-2.4-2.3-2.4c-1.29,0-2.3,1.07-2.3,2.4
				C68.36,19.92,69.36,21.01,70.65,21.01 M70.65,13.59c2.7,0,4.9,2.28,4.9,4.97c0,2.73-2.2,5.02-4.9,5.02s-4.9-2.28-4.9-5.02
				C65.75,15.87,67.95,13.59,70.65,13.59"/>
			<path id="Fill-15" class="st1" d="M77.68,14.28c0-0.26,0.22-0.45,0.45-0.45h0.91c0.22,0,0.36,0.12,0.43,0.31l0.33,0.93
				c0.33-0.48,1.22-1.47,2.7-1.47c1.12,0,2.13,0.36,1.84,0.95l-0.88,1.55c-0.12,0.21-0.36,0.31-0.55,0.21
				c-0.07-0.02-0.43-0.14-0.69-0.14c-0.96,0-1.53,0.64-1.7,0.97v5.75c0,0.33-0.22,0.45-0.55,0.45h-1.84c-0.24,0-0.45-0.21-0.45-0.45
				V14.28z"/>
			<path id="Fill-17" class="st1" d="M91.6,17.4c-0.07-0.88-0.84-1.62-1.75-1.62c-0.96,0-1.75,0.71-1.87,1.62H91.6z M89.93,13.59
				c2.46,0,4.47,1.85,4.47,4.42c0,0.17-0.02,0.48-0.05,0.64c-0.02,0.24-0.24,0.4-0.45,0.4h-6.12c0.07,0.97,0.91,2.07,2.3,2.07
				c0.74,0,1.43-0.29,1.87-0.59c0.24-0.14,0.45-0.19,0.62,0l0.98,1.12c0.17,0.17,0.22,0.43-0.02,0.62
				c-0.79,0.74-2.01,1.31-3.56,1.31c-2.87,0-4.9-2.26-4.9-4.99C85.05,15.9,87.08,13.59,89.93,13.59z"/>
			<path id="Fill-19" class="st1" d="M96.41,14.28c0-0.26,0.22-0.45,0.45-0.45h0.88c0.22,0,0.36,0.12,0.41,0.26l0.33,0.9
				c0.41-0.45,1.51-1.4,3.2-1.4c1.36,0,2.32,0.52,3.11,1.47c0.41-0.43,1.65-1.47,3.37-1.47c3.06,0,4.18,2.26,4.18,4.76v4.54
				c0,0.24-0.19,0.45-0.45,0.45h-1.94c-0.26,0-0.45-0.21-0.45-0.45v-4.71c0-1.24-0.6-2.02-1.79-2.02c-1.39,0-2.01,1-2.01,1
				s0.02,0.48,0.02,0.9v4.83c0,0.24-0.22,0.45-0.45,0.45h-1.79c-0.26,0-0.45-0.21-0.45-0.45v-4.71c0-1.24-0.55-2.02-1.77-2.02
				c-1.2,0-1.77,0.86-2.01,1.5v5.23c0,0.24-0.22,0.45-0.45,0.45h-1.94c-0.24,0-0.45-0.21-0.45-0.45V14.28z"/>
			<path id="Fill-21" class="st0" d="M115.04,14.28c0-0.26,0.22-0.45,0.45-0.45h0.91c0.22,0,0.36,0.12,0.43,0.31l0.33,0.93
				c0.33-0.48,1.22-1.47,2.7-1.47c1.12,0,2.13,0.36,1.84,0.95l-0.88,1.55c-0.12,0.21-0.36,0.31-0.55,0.21
				c-0.07-0.02-0.43-0.14-0.69-0.14c-0.96,0-1.53,0.64-1.7,0.97v5.75c0,0.33-0.22,0.45-0.55,0.45h-1.84c-0.24,0-0.45-0.21-0.45-0.45
				V14.28z"/>
			<path id="Fill-23" class="st0" d="M128.96,17.4c-0.07-0.88-0.84-1.62-1.75-1.62c-0.96,0-1.75,0.71-1.87,1.62H128.96z
				 M127.28,13.59c2.46,0,4.47,1.85,4.47,4.42c0,0.17-0.02,0.48-0.05,0.64c-0.02,0.24-0.24,0.4-0.45,0.4h-6.12
				c0.07,0.97,0.91,2.07,2.3,2.07c0.74,0,1.43-0.29,1.87-0.59c0.24-0.14,0.45-0.19,0.62,0l0.98,1.12c0.17,0.17,0.22,0.43-0.02,0.62
				c-0.79,0.74-2.01,1.31-3.56,1.31c-2.87,0-4.9-2.26-4.9-4.99C122.4,15.9,124.44,13.59,127.28,13.59z"/>
			<path id="Fill-25" class="st0" d="M136.94,21.56c0.77,0,1.51-0.64,1.65-0.93v-1.31c0,0-0.65-0.29-1.34-0.29
				c-0.93,0-1.55,0.52-1.55,1.28C135.7,21.03,136.2,21.56,136.94,21.56 M136.9,17.32c0.96,0,1.75,0.26,1.75,0.26
				c0.02-1.21-0.36-1.64-1.24-1.64c-0.88,0-2.13,0.19-2.68,0.36c-0.33,0.1-0.5-0.12-0.55-0.43l-0.22-1.24
				c-0.07-0.36,0.12-0.52,0.33-0.6c0.19-0.07,1.72-0.45,3.25-0.45c2.99,0,3.68,1.55,3.68,4.14v5.16c0,0.24-0.22,0.45-0.45,0.45
				h-0.86c-0.17,0-0.29-0.07-0.41-0.33l-0.29-0.64c-0.55,0.5-1.43,1.21-2.92,1.21c-1.91,0-3.23-1.24-3.23-3.26
				C133.07,18.63,134.46,17.32,136.9,17.32"/>
			<path id="Fill-27" class="st0" d="M148.33,13.59c1.48,0,2.63,0.59,3.54,1.69c0.17,0.21,0.12,0.5-0.12,0.67l-1.1,1.05
				c-0.22,0.19-0.43,0.07-0.6-0.07c-0.38-0.43-0.98-0.76-1.65-0.76c-1.29,0-2.34,1.09-2.34,2.43c0,1.36,1.03,2.43,2.32,2.43
				c1.03,0,1.48-0.5,1.91-0.9c0.17-0.17,0.41-0.21,0.6-0.07l1.03,0.88c0.24,0.19,0.33,0.43,0.17,0.67c-0.81,1.26-2.08,2-3.78,2
				c-2.7,0-5.07-2.14-5.07-4.99C143.23,15.78,145.65,13.59,148.33,13.59"/>
			<path id="Fill-29" class="st0" d="M154.16,7.15c0-0.24,0.22-0.45,0.45-0.45h2.03c0.24,0,0.45,0.21,0.45,0.45v7.23
				c0.48-0.36,1.41-0.78,2.53-0.78c3.04,0,4.28,2.33,4.28,4.73v4.57c0,0.24-0.22,0.45-0.45,0.45h-1.94c-0.26,0-0.45-0.21-0.45-0.45
				V18.3c0-1.31-0.74-2.14-1.89-2.14c-1.1,0-1.84,0.71-2.08,1.69v5.04c0,0.26-0.14,0.45-0.5,0.45h-1.98c-0.24,0-0.45-0.21-0.45-0.45
				V7.15z"/>
		</g>
	</g>
</g>
</svg>
