<?xml version="1.0" encoding="UTF-8"?>
<!DOCTYPE svg PUBLIC "-//W3C//DTD SVG 1.1//EN" "http://www.w3.org/Graphics/SVG/1.1/DTD/svg11.dtd">
<svg xmlns="http://www.w3.org/2000/svg" version="1.1" width="1000px" height="644px" style="shape-rendering:geometricPrecision; text-rendering:geometricPrecision; image-rendering:optimizeQuality; fill-rule:evenodd; clip-rule:evenodd" xmlns:xlink="http://www.w3.org/1999/xlink">
<g><path style="opacity:0.993" fill="#fd9900" d="M 488.5,223.5 C 540.78,186.388 583.947,140.721 618,86.5C 628.127,71.2496 636.96,55.2496 644.5,38.5C 656.745,24.1914 671.745,20.6914 689.5,28C 708.175,37.0079 722.675,50.5079 733,68.5C 754.634,107.569 758.301,148.236 744,190.5C 730.821,221.344 708.321,242.177 676.5,253C 623.859,268.053 572.525,264.387 522.5,242C 510.66,236.583 499.326,230.417 488.5,223.5 Z"/></g>
<g><path style="opacity:0.992" fill="#fecb00" d="M 644.5,38.5 C 636.96,55.2496 628.127,71.2496 618,86.5C 583.947,140.721 540.78,186.388 488.5,223.5C 462.495,239.663 434.495,251.163 404.5,258C 364.466,266.126 325.466,262.793 287.5,248C 248.521,228.258 227.354,196.425 224,152.5C 221.26,107.522 236.093,69.689 268.5,39C 288.962,21.7918 309.962,21.1251 331.5,37C 354.022,58.9061 378.022,78.9061 403.5,97C 467.436,138.124 529.769,135.791 590.5,90C 610.292,74.7079 628.292,57.5412 644.5,38.5 Z"/></g>
<g><path style="opacity:0.958" fill="#fefffe" d="M 693.5,300.5 C 713.347,300.23 722.181,309.896 720,329.5C 712.876,343.807 701.71,348.307 686.5,343C 673.262,334.551 670.429,323.384 678,309.5C 682.29,304.779 687.457,301.779 693.5,300.5 Z"/></g>
<g><path style="opacity:0.981" fill="#fefffe" d="M 531.5,308.5 C 545.5,308.5 559.5,308.5 573.5,308.5C 573.167,328.511 573.5,348.511 574.5,368.5C 594.164,353.103 614.83,351.603 636.5,364C 644.589,371.346 649.089,380.513 650,391.5C 650.5,421.498 650.667,451.498 650.5,481.5C 636.5,481.5 622.5,481.5 608.5,481.5C 608.667,455.831 608.5,430.165 608,404.5C 606.478,395.822 601.311,391.489 592.5,391.5C 584.719,391.808 578.553,395.141 574,401.5C 573.5,428.165 573.333,454.831 573.5,481.5C 559.5,481.5 545.5,481.5 531.5,481.5C 531.5,423.833 531.5,366.167 531.5,308.5 Z"/></g>
<g><path style="opacity:0.973" fill="#fefffe" d="M 452.5,315.5 C 472.251,314.103 490.251,318.936 506.5,330C 510.846,333.012 514.512,336.679 517.5,341C 511.36,349.801 504.527,357.968 497,365.5C 489.628,358.73 481.128,353.896 471.5,351C 448.204,347.234 433.371,356.734 427,379.5C 422.511,398.582 424.511,416.916 433,434.5C 442.01,446.954 454.177,451.787 469.5,449C 480.392,446.806 489.559,441.64 497,433.5C 504.167,441.833 511.333,450.167 518.5,458.5C 497.089,480.861 471.089,488.695 440.5,482C 405.827,472.992 385.327,450.825 379,415.5C 374.91,389.94 380.243,366.607 395,345.5C 410.31,327.93 429.477,317.93 452.5,315.5 Z"/></g>
<g><path style="opacity:0.973" fill="#fefffe" d="M 56.5,341.5 C 61.5111,341.334 66.5111,341.501 71.5,342C 72.9308,342.465 74.0975,343.299 75,344.5C 75.6667,348.167 75.6667,351.833 75,355.5C 71.8423,368.464 68.8423,381.464 66,394.5C 65.0023,398.473 64.6689,402.473 65,406.5C 72.1137,385.756 83.6137,367.923 99.5,353C 109.521,344.104 121.187,340.438 134.5,342C 140.127,342.957 143.96,346.124 146,351.5C 147.439,356.762 147.772,362.096 147,367.5C 144.985,379.562 142.985,391.562 141,403.5C 148.929,383.253 161.095,366.086 177.5,352C 187.714,343.596 199.38,340.262 212.5,342C 221.945,345.148 226.278,351.815 225.5,362C 221.809,387.451 217.476,412.785 212.5,438C 213.49,448.827 218.823,451.827 228.5,447C 236.294,441.54 243.127,435.04 249,427.5C 250.157,401.717 255.157,376.717 264,352.5C 267.286,346.212 272.453,342.712 279.5,342C 284.5,341.333 289.5,341.333 294.5,342C 298.331,343.481 300.331,346.315 300.5,350.5C 293.446,376.104 288.446,402.104 285.5,428.5C 286.019,431.601 286.853,434.601 288,437.5C 290.373,439.85 292.873,440.017 295.5,438C 304.458,428.601 311.291,417.768 316,405.5C 322.937,387.023 329.27,368.357 335,349.5C 342.242,341.924 351.075,339.424 361.5,342C 365.624,342.982 367.624,345.648 367.5,350C 360.946,390.823 354.446,431.656 348,472.5C 342.535,508.696 332.869,543.696 319,577.5C 312.795,591.437 303.628,602.937 291.5,612C 278.624,619.221 265.291,620.221 251.5,615C 236.382,605.681 230.549,592.181 234,574.5C 236.722,557.725 243.722,543.058 255,530.5C 272.185,510.308 291.518,492.641 313,477.5C 315.102,467.894 316.436,458.228 317,448.5C 312.372,465.458 301.872,476.958 285.5,483C 269.951,484.466 259.118,477.966 253,463.5C 233.875,482.826 211.708,487.659 186.5,478C 180.23,472.628 176.73,465.795 176,457.5C 175.333,451.5 175.333,445.5 176,439.5C 178.5,424.498 181,409.498 183.5,394.5C 183.923,391.682 182.923,389.682 180.5,388.5C 176.921,390.571 173.754,393.238 171,396.5C 165.573,404.348 160.906,412.682 157,421.5C 149.896,439.588 143.563,457.922 138,476.5C 132.536,482.581 125.703,484.748 117.5,483C 110.192,480.354 105.692,475.188 104,467.5C 101.758,458.956 101.091,450.289 102,441.5C 103.712,425.307 105.545,409.141 107.5,393C 107.154,390.786 105.988,389.286 104,388.5C 101.121,389.376 98.7875,391.042 97,393.5C 87.2563,407.99 79.923,423.657 75,440.5C 72.1777,450.123 69.511,459.789 67,469.5C 62.3219,482.226 53.4885,486.392 40.5,482C 35.8837,479.382 32.717,475.549 31,470.5C 24.1235,432.311 26.4568,394.644 38,357.5C 41.0047,348.317 47.1713,342.984 56.5,341.5 Z M 303.5,516.5 C 304.497,516.47 305.164,516.97 305.5,518C 301.386,537.677 294.886,556.51 286,574.5C 282.615,580.719 277.782,585.386 271.5,588.5C 265.882,586.627 263.215,582.627 263.5,576.5C 266.2,562.101 272.367,549.434 282,538.5C 289.369,531.298 296.536,523.965 303.5,516.5 Z"/></g>
<g><path style="opacity:0.984" fill="#fefffe" d="M 810.5,355.5 C 847.368,355.531 868.201,373.864 873,410.5C 875.473,431.282 870.473,449.949 858,466.5C 839.225,484.231 817.725,488.398 793.5,479C 791,477.167 788.5,475.333 786,473.5C 785.5,492.83 785.333,512.164 785.5,531.5C 771.833,531.5 758.167,531.5 744.5,531.5C 744.5,473.5 744.5,415.5 744.5,357.5C 758.167,357.5 771.833,357.5 785.5,357.5C 785.335,360.518 785.502,363.518 786,366.5C 793.087,360.202 801.254,356.536 810.5,355.5 Z M 805.5,385.5 C 817.095,386.381 824.595,392.381 828,403.5C 832.117,417.77 830.784,431.436 824,444.5C 816.133,453.733 806.633,455.899 795.5,451C 791.667,448.5 788.5,445.333 786,441.5C 785.333,427.167 785.333,412.833 786,398.5C 790.561,390.988 797.061,386.655 805.5,385.5 Z"/></g>
<g><path style="opacity:0.968" fill="#fefffe" d="M 927.5,355.5 C 948.813,353.991 967.146,360.491 982.5,375C 977.429,382.987 971.763,390.487 965.5,397.5C 955.266,387.25 943.266,384.083 929.5,388C 925.356,391.979 925.69,395.645 930.5,399C 944.433,404.965 957.767,411.965 970.5,420C 985.616,435.692 986.449,452.192 973,469.5C 964.876,476.811 955.376,481.311 944.5,483C 926.37,485.311 909.037,482.645 892.5,475C 887.258,472.218 882.592,468.718 878.5,464.5C 883.166,455.831 888.332,447.498 894,439.5C 905.074,450.12 918.24,454.62 933.5,453C 942.738,450.389 943.738,446.056 936.5,440C 923.233,434.368 910.566,427.701 898.5,420C 883.488,403.867 882.655,387.034 896,369.5C 905.069,361.429 915.569,356.762 927.5,355.5 Z"/></g>
<g><path style="opacity:0.972" fill="#fefffe" d="M 676.5,357.5 C 690.5,357.5 704.5,357.5 718.5,357.5C 718.5,398.833 718.5,440.167 718.5,481.5C 704.5,481.5 690.5,481.5 676.5,481.5C 676.5,440.167 676.5,398.833 676.5,357.5 Z"/></g>
</svg>
