<svg width="354" height="651" viewBox="0 0 354 651" fill="none" xmlns="http://www.w3.org/2000/svg">
<g clip-path="url(#clip0_983_1917)">
<g opacity="0.7">
<g opacity="0.3">
<path opacity="0.3" d="M190.665 226.002C190.665 224.45 189.278 223.519 187.891 223.519C186.157 223.208 184.77 224.45 184.77 226.002C184.77 227.554 186.157 228.486 187.544 228.486C189.278 228.486 190.665 227.244 190.665 226.002Z" fill="white"/>
</g>
<g opacity="0.5">
<path opacity="0.5" d="M213.9 226.002C213.9 224.45 212.513 223.519 211.126 223.519C209.392 223.519 208.352 224.76 208.352 226.002C208.352 227.244 209.392 228.486 210.779 228.486C212.513 228.486 213.9 227.244 213.9 226.002Z" fill="white"/>
</g>
<g opacity="0.7">
<path opacity="0.7" d="M237.135 226.002C237.135 224.45 235.747 223.519 234.36 223.519C232.973 223.519 231.586 224.76 231.586 226.002C231.586 227.244 232.626 228.486 234.36 228.486C236.094 228.486 237.135 227.244 237.135 226.002Z" fill="white"/>
</g>
<g opacity="0.85">
<path opacity="0.85" d="M260.369 226.002C260.369 224.45 258.982 223.519 257.595 223.519C255.861 223.519 254.82 224.76 254.82 226.002C254.82 227.244 255.861 228.486 257.595 228.486C258.982 228.486 260.369 227.244 260.369 226.002Z" fill="white"/>
</g>
<g opacity="0.85">
<path opacity="0.85" d="M283.607 226.002C283.607 224.45 282.22 223.519 280.833 223.519C279.099 223.519 278.059 224.76 278.059 226.002C278.059 227.244 279.099 228.486 280.833 228.486C282.22 228.486 283.607 227.244 283.607 226.002Z" fill="white"/>
</g>
<g opacity="0.7">
<path opacity="0.7" d="M306.842 226.002C306.842 224.45 305.455 223.519 304.067 223.519C302.333 223.519 301.293 224.76 301.293 226.002C301.293 227.244 302.333 228.486 304.067 228.486C305.801 228.486 306.842 227.244 306.842 226.002Z" fill="white"/>
</g>
<g opacity="0.5">
<path opacity="0.5" d="M330.076 226.002C330.076 224.45 328.689 223.519 327.302 223.519C325.568 223.519 324.527 224.76 324.527 226.002C324.527 227.244 325.915 228.486 327.302 228.486C329.036 228.486 330.076 227.244 330.076 226.002Z" fill="white"/>
</g>
<g opacity="0.3">
<path opacity="0.3" d="M353.658 226.002C353.658 224.45 352.271 223.519 350.884 223.519C349.15 223.519 348.109 224.76 348.109 226.002C348.109 227.244 349.15 228.486 350.537 228.486C352.271 228.486 353.658 227.244 353.658 226.002Z" fill="white"/>
</g>
</g>
</g>
<g clip-path="url(#clip1_983_1917)">
<g opacity="0.7">
<g opacity="0.3">
<path opacity="0.3" d="M190.665 248.873C190.665 247.321 189.278 246.39 187.891 246.39C186.157 246.079 184.77 247.321 184.77 248.873C184.77 250.425 186.157 251.357 187.544 251.357C189.278 251.357 190.665 250.115 190.665 248.873Z" fill="white"/>
</g>
<g opacity="0.5">
<path opacity="0.5" d="M213.9 248.873C213.9 247.321 212.513 246.39 211.126 246.39C209.392 246.39 208.352 247.631 208.352 248.873C208.352 250.115 209.392 251.357 210.779 251.357C212.513 251.357 213.9 250.115 213.9 248.873Z" fill="white"/>
</g>
<g opacity="0.7">
<path opacity="0.7" d="M237.135 248.873C237.135 247.321 235.747 246.39 234.36 246.39C232.973 246.39 231.586 247.631 231.586 248.873C231.586 250.115 232.626 251.357 234.36 251.357C236.094 251.357 237.135 250.115 237.135 248.873Z" fill="white"/>
</g>
<g opacity="0.85">
<path opacity="0.85" d="M260.369 248.873C260.369 247.321 258.982 246.39 257.595 246.39C255.861 246.39 254.82 247.631 254.82 248.873C254.82 250.115 255.861 251.357 257.595 251.357C258.982 251.357 260.369 250.115 260.369 248.873Z" fill="white"/>
</g>
<g opacity="0.85">
<path opacity="0.85" d="M283.607 248.873C283.607 247.321 282.22 246.39 280.833 246.39C279.099 246.39 278.059 247.631 278.059 248.873C278.059 250.115 279.099 251.357 280.833 251.357C282.22 251.357 283.607 250.115 283.607 248.873Z" fill="white"/>
</g>
<g opacity="0.7">
<path opacity="0.7" d="M306.842 248.873C306.842 247.321 305.455 246.39 304.067 246.39C302.333 246.39 301.293 247.631 301.293 248.873C301.293 250.115 302.333 251.357 304.067 251.357C305.801 251.357 306.842 250.115 306.842 248.873Z" fill="white"/>
</g>
<g opacity="0.5">
<path opacity="0.5" d="M330.076 248.873C330.076 247.321 328.689 246.39 327.302 246.39C325.568 246.39 324.527 247.631 324.527 248.873C324.527 250.115 325.915 251.357 327.302 251.357C329.036 251.357 330.076 250.115 330.076 248.873Z" fill="white"/>
</g>
<g opacity="0.3">
<path opacity="0.3" d="M353.658 248.873C353.658 247.321 352.271 246.39 350.884 246.39C349.15 246.39 348.109 247.631 348.109 248.873C348.109 250.115 349.15 251.357 350.537 251.357C352.271 251.357 353.658 250.115 353.658 248.873Z" fill="white"/>
</g>
</g>
</g>
<g clip-path="url(#clip2_983_1917)">
<g opacity="0.7">
<g opacity="0.3">
<path opacity="0.3" d="M190.665 270.915C190.665 268.846 189.278 267.604 187.891 267.604C186.157 267.19 184.77 268.846 184.77 270.915C184.77 272.985 186.157 274.227 187.544 274.227C189.278 274.227 190.665 272.571 190.665 270.915Z" fill="white"/>
</g>
<g opacity="0.5">
<path opacity="0.5" d="M213.9 270.915C213.9 268.846 212.513 267.604 211.126 267.604C209.392 267.604 208.352 269.26 208.352 270.915C208.352 272.571 209.392 274.227 210.779 274.227C212.513 274.227 213.9 272.571 213.9 270.915Z" fill="white"/>
</g>
<g opacity="0.7">
<path opacity="0.7" d="M237.135 270.915C237.135 268.846 235.747 267.604 234.36 267.604C232.973 267.604 231.586 269.26 231.586 270.915C231.586 272.571 232.626 274.227 234.36 274.227C236.094 274.227 237.135 272.571 237.135 270.915Z" fill="white"/>
</g>
<g opacity="0.85">
<path opacity="0.85" d="M260.369 270.915C260.369 268.846 258.982 267.604 257.595 267.604C255.861 267.604 254.82 269.26 254.82 270.915C254.82 272.571 255.861 274.227 257.595 274.227C258.982 274.227 260.369 272.571 260.369 270.915Z" fill="white"/>
</g>
<g opacity="0.85">
<path opacity="0.85" d="M283.607 270.915C283.607 268.846 282.22 267.604 280.833 267.604C279.099 267.604 278.059 269.26 278.059 270.915C278.059 272.571 279.099 274.227 280.833 274.227C282.22 274.227 283.607 272.571 283.607 270.915Z" fill="white"/>
</g>
<g opacity="0.7">
<path opacity="0.7" d="M306.842 270.915C306.842 268.846 305.455 267.604 304.067 267.604C302.333 267.604 301.293 269.26 301.293 270.915C301.293 272.571 302.333 274.227 304.067 274.227C305.801 274.227 306.842 272.571 306.842 270.915Z" fill="white"/>
</g>
<g opacity="0.5">
<path opacity="0.5" d="M330.076 270.915C330.076 268.846 328.689 267.604 327.302 267.604C325.568 267.604 324.527 269.26 324.527 270.915C324.527 272.571 325.915 274.227 327.302 274.227C329.036 274.227 330.076 272.571 330.076 270.915Z" fill="white"/>
</g>
<g opacity="0.3">
<path opacity="0.3" d="M353.658 270.915C353.658 268.846 352.271 267.604 350.884 267.604C349.15 267.604 348.109 269.26 348.109 270.915C348.109 272.571 349.15 274.227 350.537 274.227C352.271 274.227 353.658 272.571 353.658 270.915Z" fill="white"/>
</g>
</g>
</g>
<g clip-path="url(#clip3_983_1917)">
<g opacity="0.7">
<g opacity="0.3">
<path opacity="0.3" d="M190.665 292.855C190.665 291.302 189.278 290.371 187.891 290.371C186.157 290.061 184.77 291.302 184.77 292.855C184.77 294.407 186.157 295.338 187.544 295.338C189.278 295.338 190.665 294.096 190.665 292.855Z" fill="white"/>
</g>
<g opacity="0.5">
<path opacity="0.5" d="M213.9 292.855C213.9 291.302 212.513 290.371 211.126 290.371C209.392 290.371 208.352 291.613 208.352 292.855C208.352 294.096 209.392 295.338 210.779 295.338C212.513 295.338 213.9 294.096 213.9 292.855Z" fill="white"/>
</g>
<g opacity="0.7">
<path opacity="0.7" d="M237.135 292.855C237.135 291.302 235.747 290.371 234.36 290.371C232.973 290.371 231.586 291.613 231.586 292.855C231.586 294.096 232.626 295.338 234.36 295.338C236.094 295.338 237.135 294.096 237.135 292.855Z" fill="white"/>
</g>
<g opacity="0.85">
<path opacity="0.85" d="M260.369 292.855C260.369 291.302 258.982 290.371 257.595 290.371C255.861 290.371 254.82 291.613 254.82 292.855C254.82 294.096 255.861 295.338 257.595 295.338C258.982 295.338 260.369 294.096 260.369 292.855Z" fill="white"/>
</g>
<g opacity="0.85">
<path opacity="0.85" d="M283.607 292.855C283.607 291.302 282.22 290.371 280.833 290.371C279.099 290.371 278.059 291.613 278.059 292.855C278.059 294.096 279.099 295.338 280.833 295.338C282.22 295.338 283.607 294.096 283.607 292.855Z" fill="white"/>
</g>
<g opacity="0.7">
<path opacity="0.7" d="M306.842 292.855C306.842 291.302 305.455 290.371 304.067 290.371C302.333 290.371 301.293 291.613 301.293 292.855C301.293 294.096 302.333 295.338 304.067 295.338C305.801 295.338 306.842 294.096 306.842 292.855Z" fill="white"/>
</g>
<g opacity="0.5">
<path opacity="0.5" d="M330.076 292.855C330.076 291.302 328.689 290.371 327.302 290.371C325.568 290.371 324.527 291.613 324.527 292.855C324.527 294.096 325.915 295.338 327.302 295.338C329.036 295.338 330.076 294.096 330.076 292.855Z" fill="white"/>
</g>
<g opacity="0.3">
<path opacity="0.3" d="M353.658 292.855C353.658 291.302 352.271 290.371 350.884 290.371C349.15 290.371 348.109 291.613 348.109 292.855C348.109 294.096 349.15 295.338 350.537 295.338C352.271 295.338 353.658 294.096 353.658 292.855Z" fill="white"/>
</g>
</g>
</g>
<g clip-path="url(#clip4_983_1917)">
<g opacity="0.7">
<g opacity="0.3">
<path opacity="0.3" d="M190.665 315.725C190.665 314.172 189.278 313.241 187.891 313.241C186.157 312.931 184.77 314.172 184.77 315.725C184.77 317.277 186.157 318.208 187.544 318.208C189.278 318.208 190.665 316.967 190.665 315.725Z" fill="white"/>
</g>
<g opacity="0.5">
<path opacity="0.5" d="M213.9 315.725C213.9 314.172 212.513 313.241 211.126 313.241C209.392 313.241 208.352 314.483 208.352 315.725C208.352 316.967 209.392 318.208 210.779 318.208C212.513 318.208 213.9 316.967 213.9 315.725Z" fill="white"/>
</g>
<g opacity="0.7">
<path opacity="0.7" d="M237.135 315.725C237.135 314.172 235.747 313.241 234.36 313.241C232.973 313.241 231.586 314.483 231.586 315.725C231.586 316.967 232.626 318.208 234.36 318.208C236.094 318.208 237.135 316.967 237.135 315.725Z" fill="white"/>
</g>
<g opacity="0.85">
<path opacity="0.85" d="M260.369 315.725C260.369 314.172 258.982 313.241 257.595 313.241C255.861 313.241 254.82 314.483 254.82 315.725C254.82 316.967 255.861 318.208 257.595 318.208C258.982 318.208 260.369 316.967 260.369 315.725Z" fill="white"/>
</g>
<g opacity="0.85">
<path opacity="0.85" d="M283.607 315.725C283.607 314.172 282.22 313.241 280.833 313.241C279.099 313.241 278.059 314.483 278.059 315.725C278.059 316.967 279.099 318.208 280.833 318.208C282.22 318.208 283.607 316.967 283.607 315.725Z" fill="white"/>
</g>
<g opacity="0.7">
<path opacity="0.7" d="M306.842 315.725C306.842 314.172 305.455 313.241 304.067 313.241C302.333 313.241 301.293 314.483 301.293 315.725C301.293 316.967 302.333 318.208 304.067 318.208C305.801 318.208 306.842 316.967 306.842 315.725Z" fill="white"/>
</g>
<g opacity="0.5">
<path opacity="0.5" d="M330.076 315.725C330.076 314.172 328.689 313.241 327.302 313.241C325.568 313.241 324.527 314.483 324.527 315.725C324.527 316.967 325.915 318.208 327.302 318.208C329.036 318.208 330.076 316.967 330.076 315.725Z" fill="white"/>
</g>
<g opacity="0.3">
<path opacity="0.3" d="M353.658 315.725C353.658 314.172 352.271 313.241 350.884 313.241C349.15 313.241 348.109 314.483 348.109 315.725C348.109 316.967 349.15 318.208 350.537 318.208C352.271 318.208 353.658 316.967 353.658 315.725Z" fill="white"/>
</g>
</g>
</g>
<path d="M1.26855 99.2085L34.7686 132.708V354.708L89.2686 409.208V649.708" stroke="white" stroke-opacity="0.4"/>
<defs>
<clipPath id="clip0_983_1917">
<rect width="168.889" height="5.27778" fill="white" transform="matrix(1 0 0 -1 184.77 228.486)"/>
</clipPath>
<clipPath id="clip1_983_1917">
<rect width="168.889" height="5.27778" fill="white" transform="matrix(1 0 0 -1 184.77 251.357)"/>
</clipPath>
<clipPath id="clip2_983_1917">
<rect width="168.889" height="7.03704" fill="white" transform="matrix(1 0 0 -1 184.77 274.227)"/>
</clipPath>
<clipPath id="clip3_983_1917">
<rect width="168.889" height="5.27778" fill="white" transform="matrix(1 0 0 -1 184.77 295.338)"/>
</clipPath>
<clipPath id="clip4_983_1917">
<rect width="168.889" height="5.27778" fill="white" transform="matrix(1 0 0 -1 184.77 318.208)"/>
</clipPath>
</defs>
</svg>
