<svg width="26" height="27" viewBox="0 0 26 27" fill="none" xmlns="http://www.w3.org/2000/svg">
<g clip-path="url(#clip0_543_3871)">
<path d="M11.9148 26.1758H5.32869C4.45806 26.1758 3.88295 26.1758 3.31326 25.8947C2.80872 25.6455 2.40657 25.2558 2.14945 24.7669C1.85938 24.2153 1.85938 23.6576 1.85938 22.8139V20.5791C1.85938 19.6757 1.85938 19.2225 1.94508 18.7644C2.14015 17.7204 2.65244 16.7719 3.42689 16.0219C4.20095 15.2718 5.17977 14.775 6.25748 14.5859C6.40446 14.56 6.55842 14.5416 6.72867 14.5292C7.06102 14.5044 7.2809 14.4882 7.58223 14.51C7.87929 14.5315 8.08599 14.5668 8.3718 14.6449C8.66227 14.7242 8.99656 14.8712 9.80358 15.2252C10.6816 15.6107 11.617 15.8054 12.5869 15.8054C13.5568 15.8054 14.4922 15.6107 15.367 15.2267C16.1756 14.8715 16.5107 14.7246 16.8015 14.6453C17.0877 14.5672 17.2944 14.5315 17.5915 14.51C17.8928 14.4882 18.1123 14.5044 18.4451 14.5288C18.6126 14.5412 18.7638 14.5593 18.9081 14.5844C19.5204 14.6912 20.1025 14.8975 20.6389 15.1977C21.2694 15.5506 21.4855 16.3323 21.1209 16.9433C20.7568 17.5543 19.9505 17.7637 19.3196 17.4104C19.0477 17.2582 18.7526 17.1537 18.4423 17.0996C18.3877 17.0902 18.3225 17.0827 18.245 17.0767C17.97 17.0564 17.8862 17.0508 17.787 17.0583C17.6652 17.0669 17.6349 17.0722 17.5174 17.1045C17.4015 17.1391 16.9629 17.3315 16.4548 17.5543C15.2356 18.0895 13.9341 18.3608 12.5865 18.3608C11.2388 18.3608 9.93737 18.0895 8.71811 17.5543C8.20853 17.3307 7.7707 17.1383 7.65281 17.1038C7.53802 17.0726 7.50738 17.0673 7.38483 17.0583C7.28672 17.0511 7.20334 17.0568 6.928 17.0771C6.8485 17.0831 6.78257 17.0906 6.72595 17.1004C5.61877 17.2947 4.73961 18.1462 4.53911 19.2195C4.49568 19.4517 4.49568 19.8523 4.49568 20.5791V22.8139C4.49568 23.1281 4.49568 23.4513 4.51274 23.6039C4.67019 23.6204 5.00371 23.6204 5.32791 23.6204H11.914C12.6423 23.6204 13.2326 24.1923 13.2326 24.8981C13.2326 25.6038 12.6423 26.1758 11.914 26.1758H11.9148ZM19.0384 26.1758C18.7111 26.1758 18.3838 26.0582 18.129 25.8233L15.7095 23.5903C15.1821 23.1037 15.1619 22.295 15.6641 21.7839C16.1663 21.2728 17.0009 21.2533 17.5283 21.7399L19.0384 23.1334L23.7743 18.7625C24.3017 18.2759 25.1363 18.2954 25.6385 18.8065C26.1407 19.3176 26.1201 20.1263 25.5931 20.6129L19.9478 25.8229C19.693 26.0578 19.3657 26.1754 19.0384 26.1754V26.1758ZM12.5869 13.1512C8.89534 13.1512 5.89178 10.241 5.89178 6.66347C5.89178 3.08592 8.89495 0.175781 12.5869 0.175781C16.2788 0.175781 19.2819 3.0863 19.2819 6.66347C19.2819 10.2406 16.2788 13.1512 12.5869 13.1512ZM12.5869 2.73117C10.3492 2.73117 8.52886 4.49515 8.52886 6.66347C8.52886 8.8318 10.3492 10.5958 12.5869 10.5958C14.8245 10.5958 16.6449 8.8318 16.6449 6.66347C16.6449 4.49515 14.8245 2.73117 12.5869 2.73117Z" fill="white"/>
</g>
<defs>
<clipPath id="clip0_543_3871">
<rect width="26" height="26" fill="white" transform="translate(0 0.175781)"/>
</clipPath>
</defs>
</svg>
