<svg width="26" height="27" viewBox="0 0 26 27" fill="none" xmlns="http://www.w3.org/2000/svg">
<g clip-path="url(#clip0_543_3876)">
<path fill-rule="evenodd" clip-rule="evenodd" d="M11.591 16.5887C12.1447 16.0351 12.1447 15.1377 11.591 14.5841C10.0355 13.0287 10.0355 10.5066 11.591 8.95125L16.3653 4.17841C17.9208 2.62303 20.443 2.62303 21.9985 4.17841C23.554 5.73379 23.554 8.25586 21.9985 9.81124L20.5226 11.2855C19.9689 11.8391 19.9689 12.7369 20.5226 13.2906C21.0762 13.8442 21.9741 13.8442 22.5278 13.2906L24.0037 11.8163C26.6665 9.15365 26.6665 4.83639 24.0037 2.17374C21.3409 -0.488904 17.0234 -0.488904 14.3605 2.17374L9.58623 6.94659C6.92342 9.60923 6.92303 13.9261 9.58623 16.5887C10.1399 17.1428 11.0377 17.1428 11.5914 16.5887H11.591ZM14.359 9.81084C13.8053 10.3645 13.8053 11.2619 14.359 11.8155C15.9144 13.3709 15.9144 15.893 14.359 17.4483L9.63309 22.1739C8.10007 23.7514 5.57824 23.7872 4.00071 22.2542C2.42319 20.7213 2.38735 18.1996 3.92038 16.6222C3.94676 16.595 3.97393 16.5679 4.00111 16.5415L5.38488 15.1578C5.93855 14.6042 5.93855 13.7064 5.38488 13.1527C4.83122 12.5991 3.93337 12.5991 3.3797 13.1527L1.99711 14.5364C-0.665702 17.1991 -0.665702 21.5163 1.99711 24.179C4.65992 26.8416 8.97743 26.8416 11.6402 24.179L16.3661 19.4534C19.0289 16.7907 19.0293 12.4739 16.3661 9.81124C15.8125 9.25721 14.915 9.25721 14.3613 9.81084H14.3586H14.359Z" fill="white"/>
</g>
<defs>
<clipPath id="clip0_543_3876">
<rect width="26" height="26" fill="white" transform="translate(0 0.175781)"/>
</clipPath>
</defs>
</svg>
