<svg width="26" height="25" viewBox="0 0 26 25" fill="none" xmlns="http://www.w3.org/2000/svg">
<g clip-path="url(#clip0_543_3860)">
<path d="M18.2959 13.1029C17.7825 13.1029 17.3672 12.6897 17.3672 12.1797C17.3672 11.6697 17.7825 11.2565 18.2959 11.2565C21.5213 11.2565 24.1458 8.64786 24.1458 5.4412V3.87176H19.5031C18.9897 3.87176 18.5744 3.4586 18.5744 2.94857C18.5744 2.43855 18.9897 2.02539 19.5031 2.02539H25.0745C25.5879 2.02539 26.0032 2.43855 26.0032 2.94857V5.4412C26.0032 9.66586 22.5457 13.1025 18.2962 13.1025L18.2959 13.1029Z" fill="white"/>
<path d="M7.70699 13.1025C3.45751 13.1025 0 9.66586 0 5.4412V2.94857C0 2.43889 0.415273 2.02539 0.928682 2.02539H6.50009C7.01349 2.02539 7.42877 2.43855 7.42877 2.94857C7.42877 3.4586 7.01349 3.87176 6.50009 3.87176H1.85702V5.4412C1.85702 8.64752 4.48123 11.2565 7.70699 11.2565C8.2204 11.2565 8.63568 11.6697 8.63568 12.1797C8.63568 12.6897 8.2204 13.1029 7.70699 13.1029V13.1025Z" fill="white"/>
<path d="M18.5715 24.1794H7.42868C6.91527 24.1794 6.5 23.7662 6.5 23.2562V20.487C6.5 18.96 7.74961 17.7178 9.2857 17.7178H16.7145C18.2506 17.7178 19.5002 18.96 19.5002 20.487V23.2562C19.5002 23.7659 19.0849 24.1794 18.5715 24.1794ZM8.35702 22.3333H17.6428V20.4873C17.6428 19.9783 17.2265 19.5641 16.7141 19.5641H9.28536C8.77298 19.5641 8.35668 19.9783 8.35668 20.4873V22.3333H8.35702Z" fill="white"/>
<path d="M14.8558 19.5645C14.3423 19.5645 13.9271 19.1513 13.9271 18.6413V14.6723C13.9271 14.2681 14.1919 13.9107 14.5799 13.7905C16.9666 13.0546 18.5698 10.9231 18.5698 8.4873V2.02571H7.42733V8.4873C7.42733 10.9234 9.03057 13.0546 11.4165 13.7905C11.8056 13.9104 12.0704 14.2677 12.0704 14.6723V18.6413C12.0704 19.151 11.6551 19.5645 11.1417 19.5645C10.6283 19.5645 10.213 19.1513 10.213 18.6413V15.3203C7.40908 14.1746 5.57031 11.5081 5.57031 8.4873V1.10287C5.57031 0.593185 5.98559 0.179688 6.49899 0.179688H19.4992C20.0126 0.179688 20.4278 0.592843 20.4278 1.10287V8.48764C20.4278 11.5081 18.5887 14.175 15.7851 15.3206V18.6416C15.7851 19.1513 15.3699 19.5648 14.8564 19.5648L14.8558 19.5645Z" fill="white"/>
</g>
<defs>
<clipPath id="clip0_543_3860">
<rect width="26" height="24" fill="white" transform="translate(0 0.179688)"/>
</clipPath>
</defs>
</svg>
