<svg width="30" height="27" viewBox="0 0 30 27" fill="none" xmlns="http://www.w3.org/2000/svg">
<g clip-path="url(#clip0_543_3883)">
<path d="M14.999 26.1797C12.4139 26.1797 9.91614 25.4223 7.77602 23.99C7.18458 23.5941 7.02608 22.7942 7.42194 22.2028C7.81779 21.6113 8.6177 21.4528 9.20914 21.8487C10.9241 22.9964 12.9261 23.6031 14.999 23.6031C20.7464 23.6031 25.4224 18.927 25.4224 13.1797C25.4224 7.43236 20.7464 2.75626 14.999 2.75626C12.9261 2.75626 10.9237 3.36293 9.20914 4.51068C8.61809 4.90653 7.81779 4.74804 7.42194 4.15659C7.02608 3.56515 7.18458 2.76524 7.77602 2.36939C9.91614 0.937045 12.4139 0.179688 14.999 0.179688C16.7534 0.179688 18.4559 0.523621 20.0597 1.20173C21.6079 1.85641 22.9981 2.79374 24.1915 3.98716C25.385 5.18059 26.3223 6.57077 26.977 8.11906C27.6551 9.72239 27.999 11.4253 27.999 13.1797C27.999 14.9341 27.6551 16.6366 26.977 18.2403C26.3223 19.7886 25.385 21.1788 24.1915 22.3722C22.9981 23.5656 21.6079 24.503 20.0597 25.1576C18.4559 25.8358 16.7534 26.1797 14.999 26.1797ZM14.999 19.673C14.2873 19.673 13.7107 19.0964 13.7107 18.3848V17.8406C13.3055 17.8242 12.853 17.7882 12.2366 17.7113C11.5308 17.6231 11.0299 16.9794 11.1182 16.2731C11.2064 15.5669 11.8501 15.0664 12.5563 15.1547C13.5741 15.2819 14.0301 15.2792 14.7867 15.2753L14.99 15.2741C14.99 15.2741 14.992 15.2741 14.9932 15.2741C15.0482 15.2741 15.1048 15.2737 15.1626 15.2737C15.9321 15.1746 16.2491 14.9809 16.3127 14.9083C16.3131 14.9037 16.3135 14.897 16.3135 14.8876C16.3135 14.7104 16.2916 14.6991 16.1991 14.6515C16.066 14.5828 15.733 14.468 14.9994 14.468C13.642 14.468 12.5681 14.1108 11.8935 13.435C11.3785 12.9193 11.1072 12.2396 11.1084 11.4698C11.1111 9.93593 12.1101 8.84557 13.7111 8.55317V7.975C13.7111 7.26332 14.2877 6.68671 14.9994 6.68671C15.7111 6.68671 16.2877 7.26332 16.2877 7.975V8.48993C16.8819 8.5114 17.4538 8.56254 17.9121 8.67614C18.6027 8.84752 19.0236 9.54593 18.8522 10.2365C18.6808 10.9271 17.9824 11.348 17.2918 11.1766C16.7472 11.0415 15.5725 11.0493 15.008 11.0532C14.862 11.0544 14.7991 11.0521 14.7421 11.0497C14.7261 11.0489 14.7015 11.0478 14.5192 11.0528C14.1979 11.063 13.92 11.1282 13.7755 11.2277C13.7291 11.2597 13.6854 11.2898 13.685 11.4741C13.685 11.5826 13.7057 11.6037 13.717 11.6146C13.8197 11.7173 14.2054 11.8914 14.9994 11.8914C15.9867 11.8914 16.7648 12.0448 17.3781 12.3606C18.3533 12.8623 18.89 13.7598 18.89 14.888C18.89 15.8277 18.4309 16.6331 17.5967 17.1558C17.2301 17.3858 16.7976 17.5606 16.2873 17.6848V18.3852C16.2873 19.0968 15.7107 19.6734 14.999 19.6734V19.673ZM7.19122 19.673H4.58848C3.8768 19.673 3.30019 19.0964 3.30019 18.3848C3.30019 17.6731 3.8768 17.0965 4.58848 17.0965H7.19122C7.9029 17.0965 8.4795 17.6735 8.4795 18.3848C8.4795 19.0961 7.9029 19.673 7.19122 19.673ZM7.19122 14.468H3.28731C2.57563 14.468 1.99902 13.8914 1.99902 13.1797C1.99902 12.468 2.57563 11.8914 3.28731 11.8914H7.19122C7.9029 11.8914 8.4795 12.468 8.4795 13.1797C8.4795 13.8914 7.9029 14.468 7.19122 14.468ZM7.19122 9.2629H4.58848C3.8768 9.2629 3.30019 8.6859 3.30019 7.97461C3.30019 7.26332 3.8768 6.68632 4.58848 6.68632H7.19122C7.9029 6.68632 8.4795 7.26293 8.4795 7.97461C8.4795 8.68629 7.9029 9.2629 7.19122 9.2629Z" fill="white"/>
</g>
<defs>
<clipPath id="clip0_543_3883">
<rect width="28.1667" height="26" fill="white" transform="translate(0.916992 0.179688)"/>
</clipPath>
</defs>
</svg>
