<svg width="25" height="20" viewBox="0 0 25 20" fill="none" xmlns="http://www.w3.org/2000/svg">
<path d="M18.2672 13.8033C18.0772 12.5125 17.4309 11.3325 16.4454 10.4774C15.4599 9.62234 14.2005 9.14883 12.8958 9.14278H11.6798C10.375 9.14883 9.1157 9.62234 8.1302 10.4774C7.1447 11.3325 6.49834 12.5125 6.30836 13.8033L5.72551 17.8788C5.70689 18.0105 5.71919 18.1448 5.76144 18.2709C5.80369 18.3971 5.87473 18.5117 5.96894 18.6056C6.19751 18.8342 7.59979 19.9999 12.2889 19.9999C16.9781 19.9999 18.3769 18.8388 18.6089 18.6056C18.7031 18.5117 18.7742 18.3971 18.8164 18.2709C18.8587 18.1448 18.871 18.0105 18.8523 17.8788L18.2672 13.8033ZM7.21236 9.77135C6.10783 10.7896 5.38916 12.1583 5.17808 13.6456L4.75522 16.5713C1.36094 16.5485 0.332376 15.3142 0.160948 15.0628C0.0946826 14.9714 0.0473947 14.8677 0.0218767 14.7578C-0.00364119 14.6479 -0.00687159 14.534 0.0123764 14.4228L0.263804 13.0056C0.394801 12.265 0.702457 11.5669 1.16069 10.9705C1.61892 10.374 2.21421 9.89691 2.89608 9.57952C3.57796 9.26213 4.32631 9.11385 5.0777 9.14724C5.82908 9.18064 6.56133 9.39472 7.21236 9.77135ZM24.5609 14.4228C24.5801 14.534 24.5769 14.6479 24.5514 14.7578C24.5259 14.8677 24.4786 14.9714 24.4123 15.0628C24.2409 15.3142 23.2123 16.5485 19.8181 16.5713L19.3952 13.6456C19.1841 12.1583 18.4654 10.7896 17.3609 9.77135C18.0119 9.39472 18.7442 9.18064 19.4956 9.14724C20.247 9.11385 20.9953 9.26213 21.6772 9.57952C22.3591 9.89691 22.9544 10.374 23.4126 10.9705C23.8708 11.5669 24.1785 12.265 24.3095 13.0056L24.5609 14.4228ZM7.40665 7.25706C7.11897 7.66506 6.73706 7.99759 6.29336 8.2264C5.84967 8.45521 5.3573 8.57354 4.85808 8.57135C4.36009 8.57135 3.86923 8.45301 3.42594 8.22608C2.98266 7.99916 2.59965 7.67015 2.30847 7.26615C2.01729 6.86216 1.82628 6.39476 1.75117 5.90247C1.67607 5.41017 1.71903 4.90708 1.87651 4.43464C2.03399 3.9622 2.30148 3.53395 2.65694 3.18518C3.0124 2.8364 3.44565 2.57709 3.92098 2.4286C4.39632 2.28012 4.90014 2.24672 5.39092 2.33115C5.88171 2.41558 6.3454 2.61542 6.74379 2.91422C6.6292 3.36233 6.57161 3.82311 6.57236 4.28564C6.57324 5.33381 6.86182 6.36163 7.40665 7.25706ZM22.858 5.4285C22.8583 5.84131 22.7773 6.25013 22.6194 6.63157C22.4616 7.01301 22.2301 7.3596 21.9382 7.6515C21.6463 7.9434 21.2997 8.17489 20.9183 8.33272C20.5368 8.49056 20.128 8.57165 19.7152 8.57135C19.216 8.57354 18.7236 8.45521 18.2799 8.2264C17.8362 7.99759 17.4543 7.66506 17.1666 7.25706C17.7115 6.36163 18 5.33381 18.0009 4.28564C18.0017 3.82311 17.9441 3.36233 17.8295 2.91422C18.2964 2.56402 18.8516 2.35076 19.433 2.29835C20.0143 2.24593 20.5987 2.35642 21.1207 2.61745C21.6428 2.87847 22.0818 3.27971 22.3887 3.7762C22.6955 4.2727 22.858 4.84483 22.858 5.4285Z" fill="#FFB800"/>
<path d="M12.2877 8.57141C14.6546 8.57141 16.5734 6.65264 16.5734 4.28571C16.5734 1.91878 14.6546 0 12.2877 0C9.92073 0 8.00195 1.91878 8.00195 4.28571C8.00195 6.65264 9.92073 8.57141 12.2877 8.57141Z" fill="#FFB800"/>
</svg>
