<svg width="24" height="24" viewBox="0 0 24 24" fill="none" xmlns="http://www.w3.org/2000/svg">
<path d="M8.446 0C5.30178 0 2.74561 2.55612 2.74561 5.70028C2.74561 8.78443 5.15777 11.2805 8.30199 11.3886C8.398 11.3766 8.49401 11.3766 8.56601 11.3886C8.59001 11.3886 8.60201 11.3886 8.62602 11.3886C8.63802 11.3886 8.63802 11.3886 8.65002 11.3886C11.7222 11.2805 14.1344 8.78443 14.1464 5.70028C14.1464 2.55612 11.5902 0 8.446 0Z" fill="white"/>
<path d="M14.545 14.5801C11.1967 12.348 5.7364 12.348 2.36417 14.5801C0.840059 15.6001 0 16.9802 0 18.4563C0 19.9323 0.840059 21.3004 2.35216 22.3085C4.03228 23.4365 6.24044 24.0005 8.44859 24.0005C10.6567 24.0005 12.8649 23.4365 14.545 22.3085C16.0571 21.2884 16.8971 19.9203 16.8971 18.4323C16.8851 16.9562 16.0571 15.5881 14.545 14.5801Z" fill="white"/>
<path d="M21.1332 6.40555C21.3252 8.73367 19.6691 10.7737 17.3769 11.0497C17.3649 11.0497 17.3649 11.0497 17.3529 11.0497H17.3169C17.2449 11.0497 17.1729 11.0497 17.1129 11.0737C15.9488 11.1337 14.8807 10.7617 14.0767 10.0777C15.3127 8.97368 16.0208 7.3176 15.8768 5.51751C15.7928 4.54546 15.4568 3.65742 14.9527 2.90138C15.4088 2.67337 15.9368 2.52936 16.4768 2.48136C18.829 2.27735 20.9291 4.02944 21.1332 6.40555Z" fill="white"/>
<path d="M23.5313 17.5092C23.4353 18.6732 22.6913 19.6813 21.4432 20.3653C20.2431 21.0254 18.731 21.3374 17.2309 21.3014C18.095 20.5213 18.599 19.5493 18.695 18.5172C18.815 17.0292 18.107 15.6011 16.6909 14.461C15.8868 13.825 14.9507 13.321 13.9307 12.949C16.5828 12.1809 19.9191 12.6969 21.9712 14.353C23.0753 15.2411 23.6393 16.3571 23.5313 17.5092Z" fill="white"/>
</svg>
