<svg width="22" height="22" viewBox="0 0 22 22" fill="none" xmlns="http://www.w3.org/2000/svg">
<g clip-path="url(#clip0_679_1282)">
<path d="M13.9578 9.38541C14.2422 9.34461 14.5065 9.54667 14.5283 9.83319C14.559 10.2359 14.5758 10.6268 14.5758 10.9999C14.5758 11.8953 14.4789 12.8942 14.3258 13.913C14.2939 14.1259 14.1268 14.293 13.9139 14.325C12.8951 14.478 11.8961 14.5749 11.0008 14.5749C10.1091 14.5749 9.11036 14.4782 8.08771 14.3246C7.87472 14.2926 7.70763 14.1256 7.67565 13.9126C7.5227 12.8939 7.42578 11.8951 7.42578 10.9999C7.42578 10.6269 7.4426 10.236 7.47329 9.8331C7.49512 9.54661 7.75938 9.3446 8.04379 9.3854C9.06916 9.53251 10.0797 9.62491 11.0008 9.62491C11.9219 9.62491 12.9324 9.53251 13.9578 9.38541Z" fill="white"/>
<path d="M16.5531 8.91596C16.3007 8.96985 16.1289 9.20507 16.1516 9.46219C16.1985 9.99282 16.2248 10.5092 16.2248 11C16.2248 11.706 16.1704 12.4646 16.0788 13.2422C16.0383 13.5866 16.3451 13.8743 16.6835 13.7983C18.4859 13.3939 20.0993 12.9267 21.0116 12.6471C21.3439 12.5453 21.4745 12.5047 21.6497 12.4346C21.6567 12.4318 21.6637 12.429 21.6706 12.4262C21.8295 12.3617 21.9353 12.2109 21.9513 12.0402C21.9833 11.6978 21.9998 11.3508 21.9998 11C21.9998 9.85733 21.8255 8.75536 21.5022 7.71919C21.4869 7.66995 21.4343 7.64281 21.3851 7.65829V7.65829C20.3832 7.9631 18.5673 8.48594 16.5531 8.91596Z" fill="white"/>
<path d="M20.5732 5.57412C20.7262 5.84334 20.5814 6.17871 20.2842 6.26552C19.288 6.55649 17.8954 6.93577 16.3934 7.26314C16.1159 7.32363 15.846 7.13776 15.796 6.85817C15.4213 4.76521 14.879 2.72796 14.4878 1.37933C14.3761 0.99441 14.7345 0.641571 15.1063 0.791183C17.4239 1.72374 19.3508 3.42264 20.5732 5.57412Z" fill="white"/>
<path d="M14.1733 7.17713C14.2219 7.44938 14.0363 7.70728 13.7626 7.74697C12.7953 7.88726 11.8497 7.97501 10.998 7.97501C10.1463 7.97501 9.20084 7.88726 8.23357 7.74698C7.95988 7.70729 7.77425 7.44937 7.82285 7.17712C8.26911 4.67698 8.97745 2.20679 9.35096 0.988252C9.45279 0.655873 9.49333 0.525319 9.56341 0.350094C9.56623 0.343042 9.56906 0.336038 9.57189 0.329063C9.63642 0.17027 9.78709 0.0645525 9.95774 0.0485451C10.3002 0.0164218 10.6472 0 10.998 0C11.4272 0 11.8505 0.0245705 12.2668 0.0723816C12.329 0.079516 12.3798 0.124458 12.3967 0.184654V0.184654C12.4225 0.27587 12.4628 0.404067 12.5305 0.619185L12.5376 0.641783C12.858 1.66011 13.6774 4.39851 14.1733 7.17713Z" fill="white"/>
<path d="M5.61053 7.26312C5.88805 7.32361 6.15796 7.13772 6.208 6.85813C6.67781 4.23343 7.41107 1.69893 7.77704 0.504854V0.504854C7.78057 0.493322 7.76975 0.482544 7.75823 0.486096C5.05816 1.31807 2.80156 3.16155 1.43086 5.57413C1.27791 5.84334 1.42265 6.1787 1.71986 6.26551C2.716 6.55648 4.10859 6.93575 5.61053 7.26312Z" fill="white"/>
<path d="M0.606394 7.65567C0.561774 7.64161 0.514144 7.66621 0.500173 7.71086C0.175165 8.74944 0 9.85424 0 11C0 11.3974 0.0210774 11.7899 0.0621768 12.1765C0.0739802 12.2875 0.15046 12.3805 0.256363 12.4158V12.4158L0.257746 12.4163L0.259443 12.4169L0.260638 12.4172C0.316434 12.4357 1.95177 12.9758 4.10539 13.5116C4.49627 13.6089 4.90194 13.7054 5.31646 13.7983C5.65483 13.8741 5.96148 13.5865 5.92091 13.2421C5.8293 12.4645 5.77501 11.7059 5.77501 11C5.77501 10.509 5.80126 9.99264 5.84806 9.46214C5.87074 9.20502 5.69905 8.9698 5.44662 8.91591C3.43194 8.48575 1.61554 7.96272 0.613874 7.65796L0.606394 7.65567V7.65567Z" fill="white"/>
<path d="M11.0001 16.225C11.706 16.225 12.4646 16.1707 13.2422 16.0791C13.5867 16.0385 13.8743 16.3454 13.7984 16.6837C13.3939 18.4862 12.9267 20.0996 12.6471 21.0117C12.5453 21.3441 12.5048 21.4746 12.4347 21.6499C12.4319 21.6569 12.4291 21.6639 12.4262 21.6709C12.3617 21.8297 12.2109 21.9355 12.0402 21.9515C11.6978 21.9836 11.3508 22 11.0001 22C10.6493 22 10.3023 21.9836 9.95991 21.9515C9.78918 21.9355 9.63843 21.8297 9.5739 21.6709C9.57107 21.6639 9.56826 21.6569 9.56545 21.6499C9.49537 21.4747 9.45482 21.3441 9.35299 21.0118C9.0734 20.0997 8.60627 18.4864 8.20183 16.6842C8.12589 16.3458 8.41354 16.0389 8.75797 16.0794C9.5336 16.1707 10.2922 16.225 11.0001 16.225Z" fill="white"/>
<path d="M3.70588 15.1128C2.82216 14.8928 2.02349 14.6723 1.37827 14.4852C0.993391 14.3736 0.640279 14.7318 0.789857 15.1036C2.01929 18.1593 4.58084 20.5357 7.75545 21.5139C7.76695 21.5174 7.77776 21.5067 7.77423 21.4952V21.4952C7.44947 20.4355 6.83548 18.3204 6.37301 16.0233C6.33271 15.8231 6.17612 15.6664 5.97594 15.6261C5.1822 15.4662 4.41311 15.2887 3.70588 15.1128Z" fill="white"/>
<path d="M21.4976 14.2246C20.438 14.5494 18.3227 15.1634 16.0255 15.6258C15.8253 15.6661 15.6685 15.8228 15.6282 16.023C15.1658 18.3202 14.5518 20.4354 14.227 21.4952V21.4952C14.2235 21.5067 14.2343 21.5174 14.2458 21.5139C17.7125 20.4457 20.4482 17.7101 21.5163 14.2434C21.5199 14.2319 21.5091 14.2211 21.4976 14.2246V14.2246Z" fill="white"/>
<path d="M0.115234 12.386C0.153315 12.3909 0.184356 12.3961 0.194655 12.3985C0.203675 12.4007 0.217807 12.4044 0.22293 12.4058L0.234255 12.409L0.240352 12.4109L0.246763 12.4129L0.252137 12.4146C0.24912 12.4136 0.188002 12.3983 0.115234 12.386Z" fill="white"/>
</g>
<defs>
<clipPath id="clip0_679_1282">
<rect width="22" height="22" fill="white"/>
</clipPath>
</defs>
</svg>
