<svg width="168" height="200" viewBox="0 0 168 200" fill="none" xmlns="http://www.w3.org/2000/svg">
<path d="M104.748 199.999C111.421 199.999 117.241 194.168 117.241 187.481V158.244H125.582C130.587 158.244 133.923 154.9 133.923 149.885V66.3815H33.9067V149.886C33.9067 154.901 37.2432 158.245 42.248 158.245H50.59V187.481C50.59 194.168 56.408 200 63.0824 200C69.7548 200 75.5734 194.168 75.5734 187.481V158.245H92.2567V187.481C92.256 194.168 98.0753 199.999 104.748 199.999ZM154.758 149.886C161.431 149.886 167.249 144.055 167.249 137.367V78.8948C167.249 72.2431 161.431 66.3815 154.758 66.3815C148.084 66.3815 142.265 72.2431 142.265 78.8948V137.367C142.265 144.054 148.083 149.886 154.758 149.886ZM13.073 149.886C19.7468 149.886 25.5654 144.055 25.5654 137.367V78.8948C25.5654 72.2431 19.7474 66.3815 13.073 66.3815C6.39998 66.3815 0.582031 72.2431 0.582031 78.8948V137.367C0.582031 144.054 6.39998 149.886 13.073 149.886ZM123.913 1.26135C122.246 -0.420449 119.763 -0.420449 118.095 1.26135L106.907 12.4353L106.391 12.9518C99.7576 9.62293 92.32 7.96049 84.0372 7.94447L83.916 7.94314H83.9147L83.7922 7.94447C75.5101 7.96049 68.0725 9.62293 61.4394 12.9518L60.922 12.4353L49.7349 1.26135C48.066 -0.420449 45.5846 -0.420449 43.917 1.26135C42.248 2.9338 42.248 5.41578 43.917 7.08689L54.739 17.9338C51.252 20.267 48.09 23.122 45.3402 26.3875C38.757 34.2072 34.558 44.384 33.9806 55.4104C33.9753 55.5252 33.964 55.6387 33.9587 55.7535C33.9236 56.5073 33.9063 57.2619 33.9067 58.0166H133.923C133.923 57.2591 133.905 56.5043 133.871 55.7535C133.866 55.6387 133.855 55.5252 133.848 55.4104C133.272 44.384 129.072 34.2065 122.489 26.3881C119.74 23.1227 116.577 20.2676 113.09 17.9345L123.913 7.08756C125.582 5.41578 125.582 2.9338 123.913 1.26135ZM63.0664 43.4217C61.4091 43.4217 59.8197 42.7619 58.6478 41.5875C57.4759 40.4132 56.8176 38.8204 56.8176 37.1596C56.8176 35.4988 57.4759 33.9061 58.6478 32.7317C59.8197 31.5574 61.4091 30.8976 63.0664 30.8976C64.7237 30.8976 66.3131 31.5574 67.485 32.7317C68.6569 33.9061 69.3152 35.4988 69.3152 37.1596C69.3152 38.8204 68.6569 40.4132 67.485 41.5875C66.3131 42.7619 64.7237 43.4217 63.0664 43.4217ZM104.764 43.4217C103.106 43.4217 101.517 42.7619 100.345 41.5875C99.1732 40.4132 98.5149 38.8204 98.5149 37.1596C98.5149 35.4988 99.1732 33.9061 100.345 32.7317C101.517 31.5574 103.106 30.8976 104.764 30.8976C106.421 30.8976 108.01 31.5574 109.182 32.7317C110.354 33.9061 111.013 35.4988 111.013 37.1596C111.013 38.8204 110.354 40.4132 109.182 41.5875C108.01 42.7619 106.421 43.4217 104.764 43.4217Z" fill="white"/>
</svg>
