<svg width="25" height="35" viewBox="0 0 25 35" fill="none" xmlns="http://www.w3.org/2000/svg">
<path d="M24.1945 19.9041V15.5268L22.4621 13.792H21.1632V9.10301C21.1686 8.99115 21.1705 8.87745 21.1705 8.76192C21.1705 3.92434 17.2883 0 12.4991 0C7.70989 0 3.86039 3.89133 3.82955 8.7014C3.82773 8.71974 3.82773 8.74175 3.82773 8.76192V13.792H2.53791L0.807271 15.5415V19.9041L0 20.722V31.9467L3.00958 34.9872H7.66272L8.46455 34.1748L16.5427 34.184L17.3391 34.9963L21.9904 35L25 31.9596V20.722L24.1945 19.9041ZM14.6434 28.015H10.3548L11.1204 24.5106C10.4038 24.0724 9.9249 23.3058 9.9249 22.4329C9.9249 21.0704 11.075 19.9665 12.4991 19.9665C13.9232 19.9665 15.0733 21.0704 15.0733 22.4329C15.0733 23.3058 14.5944 24.0724 13.8742 24.5106L14.6434 28.015ZM16.8348 15.4076L8.16523 15.4205L7.05682 13.9112V8.50519C7.05682 5.47024 9.49859 3.0001 12.5009 3.0001C15.5032 3.0001 17.945 5.47024 17.945 8.50519V13.9112L16.8348 15.4076Z" fill="white"/>
</svg>
