<svg width="25" height="24" viewBox="0 0 25 24" fill="none" xmlns="http://www.w3.org/2000/svg">
<path d="M24.3158 3.2V10.7429C24.3125 11.3253 24.0816 11.883 23.673 12.2948C23.2645 12.7067 22.7113 12.9396 22.1336 12.9429H21.1984V6.97143C21.1984 6.22124 20.9028 5.50179 20.3766 4.97133C19.8505 4.44087 19.1368 4.14286 18.3927 4.14286H5.92308C5.17897 4.14286 4.46533 4.44087 3.93917 4.97133C3.41301 5.50179 3.11741 6.22124 3.11741 6.97143V12.9429H2.18219C1.60444 12.9396 1.0513 12.7067 0.642765 12.2948C0.234233 11.883 0.0032734 11.3253 0 10.7429V3.2C0.0032734 2.61754 0.234233 2.05988 0.642765 1.64801C1.0513 1.23614 1.60444 1.0033 2.18219 1H22.1336C22.7113 1.0033 23.2645 1.23614 23.673 1.64801C24.0816 2.05988 24.3125 2.61754 24.3158 3.2ZM20.5749 6.97143C20.5717 7.22048 20.4721 7.45841 20.2974 7.63453C20.1227 7.81065 19.8867 7.91103 19.6397 7.91429H19.3279V20.8C19.3247 21.3825 19.0937 21.9401 18.6852 22.352C18.2766 22.7639 17.7235 22.9967 17.1457 23H7.17004C6.5923 22.9967 6.03915 22.7639 5.63062 22.352C5.22209 21.9401 4.99113 21.3825 4.98785 20.8V7.91429H4.67611C4.42808 7.91429 4.1902 7.81495 4.01481 7.63813C3.83942 7.46131 3.74089 7.22149 3.74089 6.97143C3.74089 6.72137 3.83942 6.48155 4.01481 6.30473C4.1902 6.12791 4.42808 6.02857 4.67611 6.02857H19.6397C19.8867 6.03183 20.1227 6.13221 20.2974 6.30833C20.4721 6.48445 20.5717 6.72238 20.5749 6.97143ZM14.6518 15.9474C14.6515 15.492 14.511 15.0478 14.2497 14.6763C13.9884 14.3047 13.6191 14.0241 13.1929 13.8731L11.8462 13.3829C11.7837 13.3616 11.7296 13.321 11.6915 13.2668C11.6534 13.2125 11.6333 13.1476 11.6342 13.0811C11.6374 12.9967 11.673 12.9167 11.7334 12.8581C11.7939 12.7995 11.8745 12.7668 11.9584 12.7669H12.1579C12.5 12.7635 12.8364 12.8548 13.1305 13.0309C13.3403 13.1479 13.5867 13.1793 13.8187 13.1184C14.0508 13.0576 14.2508 12.9093 14.3775 12.704C14.4968 12.4932 14.5296 12.2438 14.469 12.0089C14.4085 11.7741 14.2593 11.5724 14.0533 11.4469C13.7284 11.2501 13.375 11.1059 13.0058 11.0194V10.7429C13.0058 10.4928 12.9073 10.253 12.7319 10.0762C12.5565 9.89934 12.3186 9.8 12.0706 9.8C11.8226 9.8 11.5847 9.89934 11.4093 10.0762C11.2339 10.253 11.1354 10.4928 11.1354 10.7429V10.9943C10.7068 11.147 10.3355 11.4295 10.0721 11.803C9.80877 12.1765 9.66622 12.6229 9.66397 13.0811C9.66425 13.5366 9.80475 13.9808 10.0661 14.3523C10.3274 14.7239 10.6967 15.0045 11.1229 15.1554L12.4696 15.6457C12.5321 15.667 12.5862 15.7076 12.6243 15.7618C12.6624 15.816 12.6824 15.881 12.6816 15.9474C12.6784 16.0319 12.6428 16.1119 12.5824 16.1705C12.5219 16.2291 12.4413 16.2618 12.3574 16.2617H12.1579C11.8158 16.265 11.4794 16.1737 11.1853 15.9977C11.0804 15.9202 10.9607 15.8656 10.8338 15.8373C10.7068 15.809 10.5754 15.8078 10.448 15.8336C10.3205 15.8594 10.1998 15.9117 10.0935 15.9872C9.98725 16.0627 9.89774 16.1596 9.83073 16.272C9.76371 16.3843 9.72066 16.5094 9.70432 16.6394C9.68798 16.7695 9.6987 16.9015 9.73581 17.0271C9.77292 17.1527 9.8356 17.2692 9.91985 17.369C10.0041 17.4688 10.1081 17.5498 10.2251 17.6069C10.55 17.8036 10.9034 17.9478 11.2725 18.0343V18.2857C11.2725 18.5358 11.3711 18.7756 11.5465 18.9524C11.7219 19.1292 11.9597 19.2286 12.2078 19.2286C12.4558 19.2286 12.6937 19.1292 12.8691 18.9524C13.0445 18.7756 13.143 18.5358 13.143 18.2857V18.0343C13.5785 17.8879 13.958 17.6082 14.2284 17.2341C14.4989 16.86 14.6469 16.4103 14.6518 15.9474Z" fill="white"/>
</svg>
