<svg width="232" height="200" viewBox="0 0 232 200" fill="none" xmlns="http://www.w3.org/2000/svg">
<path d="M225.742 5.65058C221.969 1.88495 217.435 0.000244141 212.134 0.000244141H19.4572C14.1587 0.000244141 9.62405 1.88495 5.84861 5.65058C2.07528 9.41747 0.189453 13.943 0.189453 19.2317V150.001C0.189453 155.291 2.07528 159.816 5.84861 163.583C9.62405 167.349 14.1587 169.23 19.4572 169.23H84.9688C84.9688 172.274 84.326 175.402 83.0412 178.605C81.7573 181.81 80.4725 184.614 79.1878 187.017C77.9047 189.422 77.2623 191.183 77.2623 192.304C77.2623 194.387 78.0245 196.194 79.5501 197.712C81.0748 199.237 82.8814 200 84.9688 200H146.626C148.713 200 150.52 199.237 152.045 197.712C153.572 196.194 154.334 194.387 154.334 192.304C154.334 191.265 153.69 189.521 152.406 187.078C151.121 184.635 149.836 181.788 148.553 178.546C147.268 175.3 146.626 172.195 146.626 169.23H212.138C217.435 169.23 221.969 167.349 225.742 163.583C229.517 159.816 231.403 155.291 231.403 150.001V19.2317C231.405 13.943 229.516 9.41747 225.742 5.65058ZM215.989 119.231C215.989 120.273 215.608 121.173 214.845 121.935C214.082 122.695 213.178 123.075 212.134 123.075H19.4572C18.4142 123.075 17.5107 122.695 16.7481 121.935C15.9859 121.17 15.6042 120.273 15.6042 119.231V19.2317C15.6042 18.1898 15.9846 17.2889 16.7481 16.5277C17.5111 15.7679 18.4146 15.3861 19.4572 15.3861H212.137C213.179 15.3861 214.085 15.7666 214.845 16.5277C215.608 17.2893 215.989 18.1902 215.989 19.2317V119.231Z" fill="white"/>
</svg>
