<svg width="24" height="24" viewBox="0 0 24 24" fill="none" xmlns="http://www.w3.org/2000/svg">
<path d="M0.703068 21.6332H2.1092C2.49748 21.6332 2.81227 21.3253 2.81227 20.9454V13.3799H0.703068C0.314787 13.3799 0 13.6879 0 14.0677V20.9454C0 21.3252 0.314787 21.6332 0.703068 21.6332ZM18.3735 1C15.2671 1 12.749 3.46337 12.749 6.50217C12.749 9.54088 15.2671 12.0043 18.3735 12.0043C21.4799 12.0043 23.998 9.54088 23.998 6.50217C23.998 3.46337 21.4799 1 18.3735 1ZM19.5517 8.97751C19.3995 9.05197 19.2398 9.11061 19.0765 9.155V9.34505C19.0765 9.72488 18.7617 10.0328 18.3734 10.0328C17.9851 10.0328 17.6703 9.72488 17.6703 9.34505V9.1765C17.3777 9.10442 17.1047 8.98324 16.8735 8.81363C16.5629 8.58575 16.4999 8.15466 16.7329 7.85075C16.9659 7.54694 17.4066 7.48527 17.7172 7.7132C17.9984 7.91953 18.5393 7.93484 18.9229 7.74722C19.077 7.67179 19.1602 7.58101 19.1602 7.53392C19.1602 7.45162 19.1602 7.43892 19.0667 7.39008C18.8832 7.2943 18.5589 7.23543 18.2452 7.17853C17.8264 7.1025 17.3933 7.02391 17.0181 6.82799C16.4701 6.54188 16.1804 6.0725 16.1804 5.47061C16.1804 4.86803 16.5498 4.34174 17.1939 4.02674C17.3465 3.95246 17.506 3.89278 17.6703 3.84852V3.65947C17.6703 3.27964 17.9851 2.9717 18.3734 2.9717C18.7617 2.9717 19.0765 3.27964 19.0765 3.65947V3.82789C19.3692 3.90001 19.6421 4.02129 19.8733 4.19089C20.1839 4.41882 20.2469 4.84992 20.0139 5.15377C19.7809 5.45763 19.3403 5.51925 19.0296 5.29133C18.748 5.08467 18.2066 5.06936 17.8227 5.25703C17.6677 5.33287 17.5866 5.42187 17.5866 5.47056C17.5866 5.55291 17.5866 5.56556 17.6801 5.61444C17.8636 5.71023 18.188 5.7691 18.5016 5.826C18.9204 5.90202 19.3535 5.98061 19.7288 6.17653C20.2767 6.46265 20.5664 6.93203 20.5664 7.53392C20.5664 8.1359 20.1966 8.66209 19.5517 8.97751ZM12.6928 22H12.8474C15.2097 21.9724 17.4736 21.3169 19.4704 20.1338L23.3935 17.4515C24.0543 16.9976 24.1809 16.1448 23.745 15.5395C23.295 14.9067 22.4232 14.7555 21.7905 15.1956L18.022 17.7817C16.8127 18.4694 15.3363 18.6208 14.0005 18.1805L9.66488 16.7774C9.29929 16.6674 9.10238 16.2685 9.22898 15.9109C9.34143 15.567 9.70702 15.3745 10.0726 15.4708C10.0867 15.4708 14.9425 17.0114 14.9425 17.0114C15.7602 17.2511 16.4867 16.7985 16.7143 16.131C16.9533 15.4019 16.5455 14.6316 15.8143 14.3978L9.20081 12.2795C7.75427 11.7644 5.80495 11.8708 4.21841 12.7387V20.4381L9.73514 21.6607C10.7457 21.8782 11.7373 22 12.6928 22Z" fill="white"/>
</svg>
