<svg width="27" height="27" viewBox="0 0 27 27" fill="none" xmlns="http://www.w3.org/2000/svg">
<path d="M20.7482 10.0439C20.6771 9.95606 20.5908 9.97332 20.5456 9.99125C20.5077 10.0064 20.4209 10.0547 20.4329 10.1759C20.4473 10.3214 20.4554 10.4697 20.457 10.6168C20.4634 11.2271 20.2149 11.825 19.7752 12.2572C19.3383 12.6866 18.7637 12.918 18.1519 12.9113C17.3161 12.9008 16.6229 12.4713 16.1472 11.6693C15.7539 11.0062 15.9268 10.1509 16.1098 9.24528C16.2169 8.71522 16.3277 8.16709 16.3277 7.64542C16.3277 3.58349 13.5559 1.24005 11.9037 0.204676C11.8695 0.183297 11.837 0.175781 11.8082 0.175781C11.7613 0.175781 11.7242 0.195687 11.7059 0.207875C11.6704 0.231539 11.6137 0.285468 11.6319 0.380937C12.2635 3.68485 10.3798 5.67197 8.38551 7.77572C6.32989 9.94423 4 12.4021 4 16.8349C4 21.9855 8.25335 26.1758 13.4815 26.1758C17.7861 26.1758 21.5814 23.2191 22.7109 18.9857C23.4811 16.0991 22.674 12.4222 20.7482 10.0439ZM13.718 24.182C12.4089 24.2408 11.1638 23.7782 10.2129 22.8824C9.27214 21.9962 8.73256 20.7594 8.73256 19.4892C8.73256 17.1055 9.6577 15.3556 12.146 13.0324C12.1867 12.9944 12.2284 12.9824 12.2647 12.9824C12.2977 12.9824 12.3262 12.9923 12.3459 13.0016C12.3873 13.0212 12.4553 13.0699 12.4461 13.1751C12.3572 14.195 12.3587 15.0416 12.4507 15.6914C12.6857 17.3512 13.919 18.4664 15.5198 18.4664C16.3046 18.4664 17.0522 18.1754 17.6248 17.647C17.6469 17.6261 17.6738 17.6108 17.7033 17.6025C17.7328 17.5942 17.7639 17.5931 17.7939 17.5994C17.8316 17.6074 17.882 17.6302 17.9085 17.693C18.1459 18.2577 18.2672 18.8572 18.2691 19.4747C18.2767 21.9591 16.2351 24.0709 13.718 24.182Z" fill="#FFB800"/>
</svg>
