<svg width="17" height="17" viewBox="0 0 17 17" fill="none" xmlns="http://www.w3.org/2000/svg">
<path d="M16.5046 6.86775H15.8334V6.83317H8.33333V10.1665H13.0429C12.3559 12.1069 10.5096 13.4998 8.33333 13.4998C5.57208 13.4998 3.33333 11.2611 3.33333 8.49984C3.33333 5.73859 5.57208 3.49984 8.33333 3.49984C9.60787 3.49984 10.7675 3.98067 11.6504 4.76609L14.0075 2.409C12.5192 1.02192 10.5284 0.166504 8.33333 0.166504C3.73125 0.166504 0 3.89775 0 8.49984C0 13.1019 3.73125 16.8332 8.33333 16.8332C12.9354 16.8332 16.6667 13.1019 16.6667 8.49984C16.6667 7.94109 16.6092 7.39567 16.5046 6.86775Z" fill="#FFC107"/>
<path d="M0.960938 4.62109L3.69886 6.629C4.43969 4.79484 6.23386 3.49984 8.33348 3.49984C9.60798 3.49984 10.7676 3.98067 11.6505 4.76609L14.0076 2.409C12.5193 1.02192 10.5285 0.166504 8.33348 0.166504C5.13261 0.166504 2.35678 1.97359 0.960938 4.62109Z" fill="#FF3D00"/>
<path d="M8.33276 16.8331C10.4853 16.8331 12.4412 16.0094 13.9199 14.6698L11.3408 12.4873C10.476 13.145 9.41926 13.5007 8.33276 13.4998C6.16531 13.4998 4.32489 12.1177 3.63156 10.189L0.914062 12.2827C2.29323 14.9815 5.09406 16.8331 8.33276 16.8331Z" fill="#4CAF50"/>
<path d="M16.5043 6.86808H15.833V6.8335H8.33301V10.1668H13.0426C12.7139 11.0903 12.1219 11.8973 11.3397 12.4881L11.3409 12.4872L13.9201 14.6697C13.7376 14.8356 16.6663 12.6668 16.6663 8.5002C16.6663 7.94141 16.6088 7.396 16.5043 6.86808Z" fill="#1976D2"/>
</svg>
