<svg width="201" height="200" viewBox="0 0 201 200" fill="none" xmlns="http://www.w3.org/2000/svg">
<g clip-path="url(#clip0_612_4542)">
<path d="M100.189 18.0078C126.908 18.0078 130.072 18.125 140.58 18.5937C150.346 19.0234 155.619 20.6641 159.135 22.0312C163.783 23.8281 167.143 26.0156 170.619 29.4922C174.135 33.0078 176.283 36.3281 178.08 40.9766C179.447 44.4922 181.088 49.8047 181.518 59.5312C181.986 70.0781 182.104 73.2422 182.104 99.9219C182.104 126.641 181.986 129.805 181.518 140.312C181.088 150.078 179.447 155.352 178.08 158.867C176.283 163.516 174.096 166.875 170.619 170.352C167.104 173.867 163.783 176.016 159.135 177.812C155.619 179.18 150.307 180.82 140.58 181.25C130.033 181.719 126.869 181.836 100.189 181.836C73.4707 181.836 70.3066 181.719 59.7988 181.25C50.0332 180.82 44.7598 179.18 41.2441 177.812C36.5957 176.016 33.2363 173.828 29.7598 170.352C26.2441 166.836 24.0957 163.516 22.2988 158.867C20.9316 155.352 19.291 150.039 18.8613 140.312C18.3926 129.766 18.2754 126.602 18.2754 99.9219C18.2754 73.2031 18.3926 70.0391 18.8613 59.5312C19.291 49.7656 20.9316 44.4922 22.2988 40.9766C24.0957 36.3281 26.2832 32.9688 29.7598 29.4922C33.2754 25.9766 36.5957 23.8281 41.2441 22.0312C44.7598 20.6641 50.0723 19.0234 59.7988 18.5937C70.3066 18.125 73.4707 18.0078 100.189 18.0078ZM100.189 0C73.041 0 69.6426 0.117187 58.9785 0.585938C48.3535 1.05469 41.0488 2.77344 34.7207 5.23437C28.1191 7.8125 22.5332 11.2109 16.9863 16.7969C11.4004 22.3437 8.00195 27.9297 5.42383 34.4922C2.96289 40.8594 1.24414 48.125 0.775391 58.75C0.306641 69.4531 0.189453 72.8516 0.189453 100C0.189453 127.148 0.306641 130.547 0.775391 141.211C1.24414 151.836 2.96289 159.141 5.42383 165.469C8.00195 172.07 11.4004 177.656 16.9863 183.203C22.5332 188.75 28.1191 192.188 34.6816 194.727C41.0488 197.188 48.3145 198.906 58.9395 199.375C69.6035 199.844 73.002 199.961 100.15 199.961C127.299 199.961 130.697 199.844 141.361 199.375C151.986 198.906 159.291 197.188 165.619 194.727C172.182 192.188 177.768 188.75 183.314 183.203C188.861 177.656 192.299 172.07 194.838 165.508C197.299 159.141 199.018 151.875 199.486 141.25C199.955 130.586 200.072 127.188 200.072 100.039C200.072 72.8906 199.955 69.4922 199.486 58.8281C199.018 48.2031 197.299 40.8984 194.838 34.5703C192.377 27.9297 188.979 22.3437 183.393 16.7969C177.846 11.25 172.26 7.8125 165.697 5.27344C159.33 2.8125 152.064 1.09375 141.439 0.625C130.736 0.117188 127.338 0 100.189 0Z" fill="white"/>
<path d="M100.189 48.6328C71.8301 48.6328 48.8223 71.6406 48.8223 100C48.8223 128.359 71.8301 151.367 100.189 151.367C128.549 151.367 151.557 128.359 151.557 100C151.557 71.6406 128.549 48.6328 100.189 48.6328ZM100.189 133.32C81.791 133.32 66.8691 118.398 66.8691 100C66.8691 81.6016 81.791 66.6797 100.189 66.6797C118.588 66.6797 133.51 81.6016 133.51 100C133.51 118.398 118.588 133.32 100.189 133.32Z" fill="white"/>
<path d="M165.58 46.6012C165.58 53.2418 160.189 58.5934 153.588 58.5934C146.947 58.5934 141.596 53.2028 141.596 46.6012C141.596 39.9606 146.986 34.609 153.588 34.609C160.189 34.609 165.58 39.9996 165.58 46.6012Z" fill="white"/>
</g>
<defs>
<clipPath id="clip0_612_4542">
<rect width="200" height="200" fill="white" transform="translate(0.189453)"/>
</clipPath>
</defs>
</svg>
