<svg width="164" height="200" viewBox="0 0 164 200" fill="none" xmlns="http://www.w3.org/2000/svg">
<path d="M120.383 0H121.801C122.939 14.1044 117.573 24.6432 111.053 32.2751C104.655 39.8542 95.8934 47.205 81.723 46.0897C80.7777 32.1872 86.1518 22.4301 92.6637 14.8158C98.7029 7.71967 109.775 1.40517 120.383 0ZM163.279 146.805V147.201C159.297 159.303 153.616 169.675 146.684 179.3C140.356 188.038 132.602 199.798 118.755 199.798C106.79 199.798 98.843 192.078 86.5806 191.868C73.6093 191.657 66.476 198.323 54.6163 200H50.5726C41.8638 198.735 34.8355 191.815 29.7153 185.579C14.6171 167.154 2.94993 143.354 0.779297 112.897V103.948C1.69832 82.1499 12.2539 64.4272 26.2843 55.8381C33.6889 51.2712 43.8681 47.3807 55.2027 49.1196C60.0604 49.8748 65.0231 51.5435 69.3731 53.1946C73.4956 54.7842 78.6508 57.6033 83.5347 57.454C86.8432 57.3574 90.1342 55.6273 93.4689 54.4065C103.237 50.8673 112.812 46.8098 125.433 48.7156C140.601 51.0166 151.367 57.7789 158.019 68.2124C145.188 76.4063 135.044 88.7542 136.777 109.841C138.317 128.995 149.415 140.201 163.279 146.805Z" fill="white"/>
</svg>
