<svg width="15" height="20" viewBox="0 0 15 20" fill="none" xmlns="http://www.w3.org/2000/svg">
<path d="M2.48254 9.00001C1.70128 9.00001 1.07628 9.56252 0.982533 10.3438L0.263782 16.2188C0.201282 16.625 0.357532 17.0313 0.607532 17.3438C0.888783 17.6563 1.26378 17.8125 1.67003 17.8125H12.5138C12.9201 17.8125 13.3263 17.625 13.5763 17.3438C13.8576 17.0313 13.9826 16.625 13.9201 16.2188L13.2013 10.3438C13.1076 9.59377 12.4513 9.00001 11.7013 9.00001H8.42004V13.5625C8.42004 14 7.92004 14.25 7.10754 14.25C6.29504 14.25 5.79504 14 5.79504 13.5625V9.00001H2.48254ZM11.5763 14.0313C12.3888 14.0313 13.0763 14.7188 13.0763 15.5313C13.0763 16.3438 12.3888 17.0313 11.5763 17.0313C10.7325 17.0313 10.0763 16.3438 10.0763 15.5313C10.0763 14.7188 10.7325 14.0313 11.5763 14.0313ZM7.10754 0C5.32629 0 3.88879 1.4375 3.88879 3.21876C3.88879 4.96876 5.32629 6.40626 7.10754 6.40626C8.8888 6.40626 10.295 4.96876 10.295 3.21876C10.3263 1.4375 8.8888 0 7.10754 0ZM9.6388 3.18751C9.6388 4.56251 8.51379 5.71876 7.10754 5.71876C6.92004 5.71876 6.76379 5.56251 6.76379 5.37501C6.76379 5.18751 6.92004 5.03126 7.10754 5.03126C8.13879 5.03126 8.9513 4.18751 8.9513 3.18751C8.9513 3 9.10755 2.84375 9.29505 2.84375C9.48255 2.84375 9.6388 3.03125 9.6388 3.18751Z" fill="#FFB800"/>
<path d="M11.5762 16.375C12.0449 16.375 12.4199 16 12.4199 15.5313C12.4199 15.0625 12.0449 14.6875 11.5762 14.6875C11.1074 14.6875 10.7324 15.0625 10.7324 15.5313C10.7324 16 11.1074 16.375 11.5762 16.375ZM6.48244 7V13.4688C6.70119 13.5938 7.51369 13.5938 7.76369 13.4688V7C7.54494 7.03125 7.35744 7.0625 7.13869 7.0625C6.88869 7.0625 6.66994 7.03125 6.48244 7ZM0.0761796 17.75L0.0136796 18.3125C-0.0488205 18.75 0.10743 19.1563 0.38868 19.5C0.669931 19.8125 1.07618 20 1.51368 20H12.7325C13.17 20 13.5762 19.8125 13.8575 19.5C14.1387 19.1875 14.2637 18.75 14.2325 18.3125L14.17 17.75C14.1387 17.7813 13.545 18.5 12.5762 18.5H1.70118C0.60743 18.5 0.16993 17.75 0.0761796 17.75Z" fill="#FFB800"/>
</svg>
