<svg width="24" height="24" viewBox="0 0 24 24" fill="none" xmlns="http://www.w3.org/2000/svg">
<path d="M17.5124 4.722C17.4662 4.59004 17.3813 4.47271 17.2672 4.38325C17.1531 4.2938 17.0143 4.23578 16.8666 4.21575L14.0015 3.82861L12.7197 1.4145C12.6538 1.29004 12.5516 1.18525 12.4249 1.11199C12.2981 1.03873 12.1518 0.999937 12.0026 1C11.8534 0.999939 11.7071 1.03873 11.5803 1.11199C11.4536 1.18525 11.3514 1.29004 11.2854 1.4145L10.0037 3.82865L7.13807 4.2158C6.99037 4.23582 6.85162 4.29383 6.7375 4.38329C6.62338 4.47275 6.53844 4.59008 6.49225 4.72205C6.44607 4.85405 6.44058 4.99543 6.47639 5.13018C6.5122 5.26493 6.58788 5.38767 6.69487 5.48449L8.76885 7.36356L8.27879 10.0167C8.2535 10.1535 8.26992 10.2941 8.32616 10.4227C8.3824 10.5513 8.47624 10.6627 8.59704 10.7442C8.84394 10.9113 9.1705 10.9319 9.43975 10.8009L12.0028 9.54821L14.5653 10.8009C14.6975 10.8655 14.8464 10.8945 14.9954 10.8845C15.1443 10.8744 15.2872 10.8259 15.408 10.7442C15.5288 10.6627 15.6226 10.5514 15.6788 10.4228C15.7351 10.2943 15.7515 10.1537 15.7263 10.0169L15.2367 7.36356L17.3102 5.48449C17.4169 5.38754 17.4925 5.26478 17.5282 5.13005C17.5639 4.99533 17.5585 4.854 17.5124 4.722ZM15.2 12.3322H8.79999C8.35817 12.3322 7.99998 12.6652 7.99998 13.076V23.7368H16V13.076C16 12.6652 15.6418 12.3322 15.2 12.3322ZM0.800008 15.3073C0.358186 15.3073 0 15.6403 0 16.0511V23.1488C0 23.4736 0.283196 23.7368 0.632498 23.7368H6.40002V15.3073H0.800008ZM23.1999 18.2824H17.6V23.7368H23.3675C23.7169 23.7368 24 23.4735 24 23.1488V19.0262C24 18.6155 23.6418 18.2824 23.1999 18.2824Z" fill="white"/>
</svg>
