<svg width="9" height="12" viewBox="0 0 9 12" fill="none" xmlns="http://www.w3.org/2000/svg">
<path d="M7.1643 3.97469L8.9405 0.618489C8.9795 0.553659 9 0.480119 9 0.405259C9 0.330399 8.9795 0.256859 8.9405 0.192029C8.8991 0.131539 8.8422 0.0821789 8.7754 0.0485989C8.7086 0.0150289 8.634 -0.0016511 8.5586 0.000128903H6.214C6.132 0.000368903 6.0517 0.0224086 5.9819 0.0638086C5.9122 0.105209 5.8557 0.164349 5.8188 0.234679L4.5 2.72517L3.16785 0.234679C3.132 0.166249 3.07762 0.108349 3.01042 0.0670787C2.94322 0.0258087 2.86569 0.0026789 2.78596 0.000128903H0.44138C0.36474 -0.000301097 0.28929 0.0183289 0.22237 0.0541989C0.15545 0.0900689 0.0993402 0.141959 0.0594902 0.204829C0.0205202 0.269659 0 0.343199 0 0.418059C0 0.492909 0.0205202 0.566449 0.0594902 0.631279L1.8357 3.98748C1.8732 4.057 1.92992 4.1153 1.99964 4.1559C2.06935 4.1965 2.14936 4.2179 2.2309 4.2178H3.23446C3.17007 4.4064 3.1371 4.6035 3.13676 4.802C3.13237 4.8816 3.13237 4.9613 3.13676 5.0408C2.32251 5.3469 1.64513 5.9165 1.22164 6.6512C0.79814 7.3859 0.65514 8.2396 0.81731 9.0648C0.97948 9.89 1.43666 10.6349 2.10986 11.1708C2.78307 11.7067 3.63003 12 4.5044 12C5.3789 12 6.2258 11.7067 6.899 11.1708C7.5722 10.6349 8.0294 9.89 8.1916 9.0648C8.3537 8.2396 8.2107 7.3859 7.7872 6.6512C7.3638 5.9165 6.6864 5.3469 5.8721 5.0408C5.8841 4.9588 5.8915 4.8762 5.8943 4.7935C5.9042 4.5954 5.8832 4.3971 5.8322 4.205H6.8046C6.88 4.1992 6.9527 4.175 7.0156 4.1347C7.0786 4.0944 7.1297 4.0393 7.1643 3.97469ZM6.7558 7.8128L5.6234 8.8747L5.8899 10.3758L4.5 9.6593L3.0968 10.3672L3.36323 8.8661L2.2309 7.8042L3.7984 7.5868L4.5 6.2178L5.2016 7.5868L6.7558 7.8128ZM5.0018 4.7977C5.0018 4.7977 5.0018 4.7977 5.0018 4.8276C4.8358 4.8014 4.6681 4.7857 4.5 4.7807C4.33803 4.7811 4.17629 4.7925 4.01598 4.8148C4.01391 4.8064 4.01391 4.7976 4.01598 4.7892C4.01014 4.5795 4.07734 4.3739 4.20693 4.205H4.8286C4.9566 4.3744 5.0222 4.58 5.0151 4.7892L5.0018 4.7977Z" fill="white"/>
</svg>
