<svg width="24" height="24" viewBox="0 0 24 24" fill="none" xmlns="http://www.w3.org/2000/svg">
<path d="M12.4453 0C9.30118 0 6.74512 2.55612 6.74512 5.70028C6.74512 8.78443 9.15718 11.2805 12.3013 11.3886C12.3973 11.3766 12.4933 11.3766 12.5653 11.3886C12.5893 11.3886 12.6013 11.3886 12.6253 11.3886C12.6373 11.3886 12.6373 11.3886 12.6493 11.3886C15.7213 11.2805 18.1334 8.78443 18.1454 5.70028C18.1454 2.55612 15.5893 0 12.4453 0Z" fill="white"/>
<path d="M18.5443 14.5801C15.1962 12.348 9.73614 12.348 6.36406 14.5801C4.84002 15.6001 4 16.9802 4 18.4563C4 19.9323 4.84002 21.3004 6.35206 22.3085C8.0321 23.4365 10.2402 24.0005 12.4482 24.0005C14.6562 24.0005 16.8643 23.4365 18.5443 22.3085C20.0564 21.2884 20.8964 19.9203 20.8964 18.4323C20.8844 16.9562 20.0564 15.5881 18.5443 14.5801Z" fill="white"/>
</svg>
