<svg width="27" height="27" viewBox="0 0 27 27" fill="none" xmlns="http://www.w3.org/2000/svg">
<path d="M26.3631 0.530624C26.3399 0.42606 26.2587 0.344733 26.16 0.315688C22.7591 -0.515013 14.9069 2.44763 10.6528 6.70569C9.89257 7.46087 9.20195 8.27995 8.58677 9.15132C7.27516 9.03514 5.96355 9.13389 4.84346 9.62186C1.68631 11.0102 0.769343 14.6409 0.508182 16.1978C0.45595 16.4998 0.659075 16.7903 0.966665 16.8426C1.0189 16.8484 1.07113 16.8542 1.12336 16.8484L6.18989 16.2907C6.19569 16.6741 6.21891 17.0575 6.25953 17.4351C6.28275 17.6965 6.40462 17.9463 6.59034 18.1322L8.55195 20.0898C8.73766 20.2757 8.98721 20.3977 9.24838 20.421C9.62561 20.4616 10.0028 20.4849 10.3859 20.4907L9.82873 25.5562C9.79391 25.8641 10.0203 26.1429 10.3278 26.172C10.3801 26.1778 10.4323 26.1778 10.4787 26.1662C12.0341 25.9164 15.6671 24.9985 17.0484 21.8384C17.5359 20.7172 17.6346 19.4102 17.5243 18.1031C18.4006 17.4874 19.2189 16.7903 19.9734 16.0351C24.239 11.7886 27.1814 4.10322 26.3631 0.530624ZM19.6484 10.9638C18.5631 12.0501 16.7988 12.0559 15.7136 10.9638C14.6225 9.87746 14.6225 8.11149 15.7136 7.01938C16.7988 5.92727 18.5631 5.92727 19.6542 7.01938C20.7395 8.11149 20.7395 9.87746 19.6484 10.9638Z" fill="#FFB800"/>
<path d="M8.41622 21.5078C8.09703 21.8273 7.58631 21.9492 6.97113 22.0596C5.58988 22.292 4.37113 21.1011 4.62068 19.7069C4.71354 19.1783 4.99791 18.4347 5.17202 18.2605C5.27068 18.1617 5.27649 17.9991 5.17782 17.9003C5.11979 17.8422 5.04434 17.8132 4.96309 17.8248C4.19122 17.9177 3.47157 18.2721 2.92604 18.8181C1.55639 20.1891 1.42871 25.2604 1.42871 25.2604C1.42871 25.2604 6.50104 25.1326 7.86488 23.7617C8.41622 23.2098 8.76444 22.4953 8.8573 21.7169C8.88051 21.4787 8.58453 21.3335 8.41622 21.5078Z" fill="#FFB800"/>
</svg>
