<svg width="27" height="27" viewBox="0 0 27 27" fill="none" xmlns="http://www.w3.org/2000/svg">
<path d="M13.5 0.175781C6.32058 0.175781 0.5 5.99636 0.5 13.1758C0.5 20.3552 6.32058 26.1758 13.5 26.1758C20.6794 26.1758 26.5 20.3552 26.5 13.1758C26.5 5.99636 20.6794 0.175781 13.5 0.175781ZM17.2342 18.3009C16.6671 18.991 15.9288 19.4564 15.0675 19.6918C14.693 19.7935 14.5218 19.9914 14.5432 20.382C14.5593 20.7671 14.5432 21.147 14.5379 21.5322C14.5379 21.8745 14.3613 22.0564 14.0243 22.0671C13.8049 22.0725 13.5856 22.0778 13.3663 22.0778C13.1737 22.0778 12.9811 22.0778 12.7885 22.0725C12.4247 22.0671 12.2535 21.8585 12.2535 21.5054C12.2481 21.2272 12.2481 20.9437 12.2481 20.6655C12.2428 20.0449 12.2214 20.0235 11.6276 19.9272C10.8679 19.8042 10.1189 19.633 9.42346 19.2959C8.87778 19.0285 8.81893 18.8947 8.97407 18.3169C9.09177 17.889 9.20947 17.461 9.34321 17.0383C9.43951 16.728 9.53045 16.5889 9.6963 16.5889C9.79259 16.5889 9.91564 16.6371 10.0815 16.7227C10.8519 17.1239 11.6704 17.3486 12.5317 17.4556C12.6761 17.4717 12.8206 17.4824 12.965 17.4824C13.3663 17.4824 13.7568 17.4075 14.1366 17.2416C15.0942 16.8243 15.244 15.7169 14.4362 15.0536C14.1634 14.8289 13.8477 14.663 13.5214 14.5186C12.6815 14.1494 11.8095 13.8713 11.0177 13.3951C9.73375 12.6248 8.92058 11.5708 9.01687 10.0087C9.12387 8.24327 10.1243 7.14121 11.7453 6.55274C12.414 6.312 12.4193 6.31735 12.4193 5.62187C12.4193 5.38648 12.414 5.15109 12.4247 4.91035C12.4407 4.38607 12.5263 4.29512 13.0506 4.27907H13.6605C14.6556 4.27907 14.6556 4.32187 14.6609 5.39718C14.6663 6.18895 14.6663 6.18895 15.4527 6.312C16.0572 6.40829 16.6296 6.58484 17.186 6.83093C17.4909 6.96467 17.6086 7.17866 17.5123 7.505C17.3733 7.98648 17.2395 8.47331 17.0897 8.94944C16.9934 9.23833 16.9025 9.37208 16.7313 9.37208C16.635 9.37208 16.5173 9.33463 16.3675 9.25973C15.5971 8.88525 14.7893 8.70335 13.944 8.70335C13.837 8.70335 13.7247 8.7087 13.6177 8.71405C13.3663 8.7301 13.1202 8.7622 12.8848 8.86385C12.0502 9.22763 11.9165 10.1478 12.628 10.7149C12.9864 11.0038 13.3984 11.2071 13.821 11.3836C14.5593 11.6885 15.2975 11.9828 15.9984 12.368C18.2025 13.5984 18.8016 16.3964 17.2342 18.3009Z" fill="#FFB800"/>
</svg>
